<?xml version="1.0" encoding="UTF-8"?>
<!DOCTYPE svg PUBLIC "-//W3C//DTD SVG 1.1//EN" "http://www.w3.org/Graphics/SVG/1.1/DTD/svg11.dtd">
<!-- Creator: CorelDRAW -->
<svg xmlns="http://www.w3.org/2000/svg" xml:space="preserve" width="78.4632mm" height="94.9774mm" version="1.1" style="shape-rendering:geometricPrecision; text-rendering:geometricPrecision; image-rendering:optimizeQuality; fill-rule:evenodd; clip-rule:evenodd"
viewBox="0 0 7846 9498"
 xmlns:xlink="http://www.w3.org/1999/xlink">
 <defs>
  <style type="text/css">
   <![CDATA[
    .fil8 {fill:black}
    .fil3 {fill:#A28B8B}
    .fil4 {fill:#A2A2C6}
    .fil1 {fill:#A2A2D5}
    .fil9 {fill:#A6FFA6}
    .fil2 {fill:#D0B9B9}
    .fil10 {fill:#F5F5FF}
    .fil6 {fill:#FFA64D}
    .fil5 {fill:#FFDAA5}
    .fil7 {fill:#FFF599}
    .fil0 {fill:white}
   ]]>
  </style>
 </defs>
 <g id="__x0023_Layer_x0020_1">
  <metadata id="CorelCorpID_0Corel-Layer"/>
  <g id="anim0838.ai">
   <g>
    <polygon class="fil0" points="3022,3626 5818,4376 7293,4032 7704,3085 7578,1861 7138,981 6258,289 4908,130 4024,352 3051,1484 2800,2867 "/>
    <polygon class="fil1" points="3718,1718 3429,2226 3374,2934 3445,3424 3211,3370 3211,3152 2884,2825 3211,2720 3303,2100 "/>
    <polygon class="fil2" points="5981,327 4694,360 3898,813 3408,1865 2997,2863 3211,3332 3810,3751 4552,4024 5436,4170 6400,4112 6979,3986 7322,3588 7628,2557 7591,3533 7213,4221 6798,4476 6019,4657 4313,4455 2796,3860 2833,1936 3194,1069 4011,469 4569,197 "/>
    <polygon class="fil3" points="7213,3043 7339,2192 7230,1630 6924,1086 6308,650 5621,562 4661,629 4061,939 3844,1320 3827,1777 "/>
    <polygon class="fil4" points="3953,3408 3881,2791 4187,2284 4443,1484 4803,1974 6308,2050 6652,1702 6778,2050 6723,2465 7104,3441 7251,2645 7016,1882 6635,1358 6128,901 5457,868 4820,922 4045,1304 3739,2050 3630,3315 "/>
    <polygon class="fil5" points="4443,1827 3953,3043 4187,3533 5202,3877 6342,3915 6635,3751 6073,3517 5818,3697 5621,3517 5185,3533 5239,3261 5072,3278 4774,3257 4590,3152 4548,2804 4623,2720 4896,2683 5474,2917 5943,2988 6547,2783 6815,3278 7016,3299 6635,2284 4896,1974 4518,1630 "/>
    <polygon class="fil5" points="5093,3315 5373,3118 5457,2880 5834,2880 5960,3173 6128,3315 6430,3294 6564,3215 6673,2993 6614,2808 6870,3227 6564,3751 6036,3517 5784,3772 5005,3588 "/>
    <polygon class="fil5" points="4351,7939 5348,8374 5294,8756 4296,8718 "/>
    <polygon class="fil5" points="474,2209 838,1991 1182,2012 1744,2263 2142,2699 2360,3261 2452,3969 2142,4820 1819,3802 1563,2825 511,2465 189,2481 "/>
    <polygon class="fil5" points="3827,5114 3408,6308 3554,7867 3663,9066 3827,9372 4443,9372 4715,8940 4372,8701 4313,8395 4405,7322 4351,6706 5093,6723 5386,6778 5348,7922 5365,8320 5583,9137 6472,9175 6472,8735 6090,8395 6090,7377 6308,6161 6107,5637 6325,5093 6254,4711 "/>
    <polygon class="fil6" points="6652,2448 6216,2351 5675,2574 5151,2410 4896,2209 4879,1991 6342,2050 6614,1702 6832,2050 "/>
    <polygon class="fil6" points="4678,1882 4481,1811 4422,2100 4460,2389 4208,2683 4154,3043 4351,2972 4372,3479 4841,3424 5260,3424 5365,3588 5294,3932 4045,3517 3898,2754 4208,2301 4422,1484 "/>
    <polygon class="fil6" points="6887,2896 6907,3227 6778,3152 6744,3408 6472,3479 6472,3772 6145,3915 6509,3948 6887,3714 7016,3315 "/>
    <polygon class="fil6" points="239,3391 151,3043 130,2683 570,2284 1056,2247 1710,2448 2092,3169 2092,4024 2305,4569 1836,5508 1886,6237 2125,6706 2305,5797 2703,5365 2938,5055 3030,4728 3483,4330 3973,4405 5202,4694 6291,4694 6308,5076 5658,5055 4988,5399 4481,5076 4078,5185 3898,5818 3953,6706 3739,7268 3915,8395 3756,8538 3663,9116 2997,9137 2561,8844 2142,8844 2125,8521 1547,7993 1056,7197 1127,5474 1744,4170 1635,3353 1345,2896 893,2808 423,3462 "/>
    <polygon class="fil6" points="4351,5637 4606,6270 4858,6199 4803,6564 5055,6488 5562,6052 5692,6325 5746,6962 5583,7540 5730,8249 5562,8701 5365,8102 5327,6778 4770,7415 4497,7557 "/>
    <polygon class="fil7" points="4623,2737 4728,3005 4967,3227 5214,3102 5403,2917 "/>
    <polygon class="fil7" points="5931,2993 6145,3202 6283,3248 6463,3165 6622,2938 6472,2771 "/>
    <polygon class="fil8" points="7121,3152 7339,2192 6845,1216 6136,746 5143,746 4497,889 3852,1295 3588,2024 3504,2955 3525,3441 4154,3789 4720,3948 5612,4011 6417,3927 5306,3848 4217,3521 3747,3198 3831,2104 4254,1236 5084,930 6115,1031 6765,1576 7050,2192 "/>
    <polygon class="fil8" points="3948,2444 4154,2138 4254,1693 4397,1387 4619,1509 4782,1752 5026,1895 6036,1953 6379,1857 6643,1471 6924,2037 6786,2502 7008,3110 7167,3475 7008,3475 7071,3626 6643,3860 6786,3596 6945,3215 6601,2444 6723,2159 6622,1836 6379,2175 5730,2096 5005,2079 5005,2259 4678,2238 4740,2117 4476,1651 4334,2016 4254,2339 3948,2766 4032,3332 4942,3756 4112,3517 3869,3294 3810,2766 "/>
    <polygon class="fil8" points="5533,3793 5470,3470 5776,3429 5855,3630 5998,3450 6199,3550 6057,3772 "/>
    <polygon class="fil8" points="3387,4191 3068,4493 2758,4858 2938,4891 2649,5273 3139,5223 3185,4715 3567,4393 "/>
    <polygon class="fil8" points="3085,5223 2833,5093 2251,5587 2050,6400 1928,6052 2012,5344 2494,4414 2515,3605 2314,2691 1966,2209 1262,1903 595,1941 46,2490 0,3076 168,3584 511,3626 696,3240 1060,2833 1283,2854 855,2611 654,2955 411,3320 168,3135 210,2712 616,2247 956,2045 1605,2247 1991,2632 2234,3181 2330,3848 2213,4472 1765,5264 1685,6052 1886,6803 1869,7151 2108,7633 2129,6681 2435,5772 2800,5428 "/>
    <polygon class="fil8" points="897,2653 1140,2691 1425,2875 1727,3420 1827,4150 1563,4799 1283,5386 1182,6115 1182,7046 1484,7532 2071,8320 2071,8588 1647,8282 1019,7327 935,6740 998,5730 1140,5122 1425,4577 1626,4070 1563,3483 1283,2976 956,2854 "/>
    <polygon class="fil8" points="2758,6195 2900,5793 3324,5545 3667,5671 3747,6358 3667,7125 3282,7960 3244,8446 3567,8462 3709,8727 3408,8668 3060,8588 3022,8140 3123,7532 3466,7025 3504,6132 3408,5772 3060,5830 "/>
    <polygon class="fil8" points="2050,8060 2029,8525 2071,8890 2536,8907 3001,9213 3567,9196 3772,9049 3487,9032 3424,8848 3265,9091 3022,9070 2636,8747 2192,8747 2213,8345 "/>
    <polygon class="fil8" points="4581,5243 4254,5524 4359,6539 4313,7997 4313,8685 4661,8953 4598,9129 4359,9276 4334,9070 4154,9376 4074,9032 3890,9292 3726,8970 3789,8504 3726,7574 3647,6581 3525,7327 3609,8060 3647,8869 3667,9292 3810,9477 4074,9498 4518,9435 4761,9213 4803,8928 4418,8525 4560,7310 4497,6052 4439,5570 "/>
    <polygon class="fil8" points="6379,4598 6379,5101 6178,5650 6400,6216 6337,6924 6136,7758 6258,8425 6601,8685 6643,9012 6497,9213 6296,9234 5650,9292 5390,9012 5390,8588 5206,7934 5306,6480 5508,6195 5449,6882 5449,7817 5612,8605 5692,9070 5914,9129 5977,8827 6094,9129 6237,8848 6400,9070 6459,8869 6379,8685 5914,8446 6057,8039 5977,7490 6178,6803 6237,6073 5834,5830 5893,5487 6178,5264 6237,4636 "/>
    <polygon class="fil8" points="5508,6275 5063,6903 4761,7209 4418,7352 4359,7960 4699,7473 4803,7633 5063,7209 5348,6987 "/>
    <polygon class="fil8" points="4455,7897 4720,7980 5105,8140 5449,8425 5508,8789 5084,8848 4619,8869 4418,8626 4782,8668 4883,8462 5063,8668 5227,8626 5227,8345 4841,8203 4418,8039 "/>
    <polygon class="fil9" points="4958,2771 4833,3110 4971,3215 5105,3110 5105,2829 "/>
    <polygon class="fil9" points="6245,2900 6191,3248 6329,3278 6413,3181 6400,2875 "/>
    <polygon class="fil8" points="4539,2779 4736,2620 5042,2603 5227,2783 5528,2909 5243,2930 5084,3148 5026,2846 4841,3131 4803,2808 4678,2758 "/>
    <polygon class="fil8" points="5893,2972 6115,2909 6262,2779 6539,2779 6656,2951 6501,2959 6400,3215 6337,2926 6178,3274 6178,3009 "/>
    <polygon class="fil10" points="5114,1174 5637,1174 6107,1304 6379,1521 6145,1756 5730,1484 "/>
    <polygon class="fil8" points="3864,1266 3211,2100 3102,2481 2486,2607 2502,3118 3085,3152 3139,3441 4481,3839 3630,3424 3265,3315 3265,3043 3009,2846 3265,2791 3303,2175 3827,1681 "/>
    <polygon class="fil1" points="7486,2410 7519,2988 7251,3735 7557,3550 7687,2988 "/>
    <polygon class="fil8" points="6036,138 5042,0 4154,222 3366,767 2779,1681 2657,2691 2678,3885 3487,4393 4455,4678 5428,4757 6199,4736 6643,4535 5709,4514 4418,4393 3223,3927 2959,3684 2917,2548 3022,1698 3747,746 4535,281 5449,281 6216,381 6903,809 7289,1274 7574,2083 7612,2733 7490,3626 7067,4313 7352,4129 7633,3605 7775,2712 7691,1861 7188,951 6744,465 "/>
    <polygon class="fil8" points="7666,2846 7846,3026 7792,3441 7591,3517 "/>
    <polygon class="fil8" points="6907,1396 7452,2050 7721,2791 7649,3131 7486,2519 7142,1953 "/>
    <polygon class="fil8" points="7557,3424 7230,3714 5495,3948 5910,4024 6887,3969 7431,3789 "/>
   </g>
  </g>
 </g>
</svg>
