<?xml version="1.0" encoding="UTF-8"?>
<!DOCTYPE svg PUBLIC "-//W3C//DTD SVG 1.1//EN" "http://www.w3.org/Graphics/SVG/1.1/DTD/svg11.dtd">
<!-- Creator: CorelDRAW -->
<svg xmlns="http://www.w3.org/2000/svg" xml:space="preserve" width="125.4mm" height="143.637mm" version="1.1" style="shape-rendering:geometricPrecision; text-rendering:geometricPrecision; image-rendering:optimizeQuality; fill-rule:evenodd; clip-rule:evenodd"
viewBox="0 0 12540 14364"
 xmlns:xlink="http://www.w3.org/1999/xlink">
 <defs>
  <style type="text/css">
   <![CDATA[
    .fil6 {fill:black}
    .fil3 {fill:#ACACDA}
    .fil1 {fill:#CCC480}
    .fil5 {fill:#E89678}
    .fil4 {fill:#FF7373}
    .fil2 {fill:#FFB59E}
    .fil0 {fill:#FFF599}
   ]]>
  </style>
 </defs>
 <g id="Layer_x0020_1">
  <metadata id="CorelCorpID_0Corel-Layer"/>
  <g id="anim0823.ai">
   <polygon class="fil0" points="856,5601 2222,8222 3416,6495 6170,10063 7930,10244 9238,10960 11722,11392 8128,13119 6170,12743 5080,12268 1567,8877 620,6495 "/>
   <polygon class="fil1" points="2642,6972 2461,8458 4544,9411 3350,6731 "/>
   <polygon class="fil1" points="7290,12083 11664,11676 12095,10612 9421,8971 9047,9517 8674,10495 8227,10008 7160,10960 "/>
   <polygon class="fil2" points="3117,589 2055,1105 1593,3442 1364,3785 1219,5372 1389,6236 1707,6723 1910,8247 2342,8395 2832,8166 2685,7244 3287,6520 3637,7158 3866,8484 4900,9517 6139,10041 6170,11417 6741,11938 7061,12083 7493,11857 7117,10902 7892,10236 8324,10152 8443,10673 9014,11074 9446,10732 9014,10041 9421,7557 11981,7498 12469,6812 11059,5428 11118,4077 10140,3383 9853,3383 9619,3899 8583,3729 7148,4191 6058,4826 4818,3932 4615,3353 3434,2921 2603,2896 2545,1829 3172,1135 "/>
   <polygon class="fil3" points="467,8280 1161,8077 2228,9746 1077,10300 531,9779 "/>
   <polygon class="fil3" points="4387,11562 4242,12311 4387,13754 4958,14127 6398,13698 6914,13119 5738,12687 "/>
   <polygon class="fil4" points="9479,7531 9708,8369 10109,8451 10196,9086 10947,9314 11176,8857 10914,7498 "/>
   <polygon class="fil5" points="1631,3396 2520,2921 2939,538 1864,1854 "/>
   <polygon class="fil5" points="5911,5126 3536,3574 2461,3518 1750,4234 2309,8336 2888,8133 2642,7823 3350,6236 4615,8484 6368,9804 6774,11537 7549,11968 7219,10841 8128,10041 8989,10927 9505,10757 9131,9550 9708,7816 9675,7099 12357,6871 10432,4712 10787,3937 10190,3518 6741,4351 "/>
   <polygon class="fil6" points="2659,2794 2690,1900 3269,1092 3429,356 2977,323 1885,902 1377,2319 1631,3086 1986,2476 2210,1224 3010,742 2850,1351 2461,1994 2431,2761 "/>
   <polygon class="fil6" points="1148,1542 1280,775 1986,30 1344,132 894,711 "/>
   <polygon class="fil6" points="3752,0 3879,965 3490,2281 4069,1671 4260,577 "/>
   <polygon class="fil6" points="475,262 0,871 124,1867 632,2349 348,1415 "/>
   <polygon class="fil6" points="3010,2863 1953,3023 1181,3663 958,4818 1148,6007 1600,6718 1661,7361 1923,8390 2461,8611 3040,8324 2880,7971 2629,8285 2144,8255 1923,7422 2080,6553 1567,6266 1344,5367 1440,3759 2177,3213 "/>
   <polygon class="fil6" points="3490,2959 4328,3180 4806,3378 4869,3823 4552,3729 4392,3442 "/>
   <polygon class="fil6" points="3848,3505 5067,3988 5771,4534 6220,4661 6088,5047 5319,4724 4582,4051 "/>
   <polygon class="fil6" points="3299,4915 3586,6038 3299,6782 2819,7295 2494,7391 2334,7003 2334,6038 2596,6876 2977,6751 3269,6038 "/>
   <polygon class="fil6" points="3363,6426 3848,7130 4039,8514 5067,9418 6088,9670 6380,10089 6253,10762 6380,11532 7087,12014 7473,11887 7211,11278 7211,10922 7506,11405 7757,11760 7663,12047 7117,12306 6411,11857 6025,11247 6025,10859 5898,10343 5992,10028 5034,9830 3782,8611 3619,7938 3553,7295 3238,6751 "/>
   <polygon class="fil6" points="6957,11341 7087,10638 8019,9860 8496,9962 8496,10605 9009,10952 9365,10638 9009,10028 9136,9314 9238,9995 9555,10409 9682,10698 9459,11151 8915,11151 8400,10828 8209,10152 7757,10376 7376,10828 "/>
   <polygon class="fil6" points="8725,9576 9268,9251 9716,8966 9525,8451 9268,8933 8786,9157 "/>
   <polygon class="fil6" points="8621,5080 7696,5593 7600,6426 7440,6939 6761,7485 6253,7518 6088,7130 6253,6553 6088,5207 6220,4691 6571,4178 7402,4018 8049,4399 7338,4305 6601,4463 6411,5047 6411,5977 6477,6520 6380,7163 6830,7099 7338,6457 7338,5524 7986,5009 "/>
   <polygon class="fil6" points="7277,4051 7790,3759 8725,3599 9586,3891 8463,3853 7536,4178 "/>
   <polygon class="fil6" points="9268,3853 9555,3599 9682,3277 10259,3277 11163,3823 11384,4178 11067,4788 10996,4338 10424,4661 10229,4399 10996,4051 10196,3505 9975,3442 9619,3891 "/>
   <polygon class="fil6" points="10135,4661 11067,4757 11257,5110 11194,5491 11994,6172 12507,6751 12215,6655 11415,6109 11097,5657 10775,5491 10838,4948 "/>
   <polygon class="fil6" points="8849,6007 9335,5397 9944,5593 10005,5880 9682,5880 9268,6266 "/>
   <polygon class="fil6" points="8621,6909 9649,7226 11224,7361 11867,7391 11707,7003 12540,6782 12507,7226 12248,7645 11773,7709 11544,7612 9619,7518 9776,8222 10292,8390 10325,9030 10135,9093 10135,8514 9716,8611 9446,7590 8725,7226 "/>
   <polygon class="fil6" points="9848,7518 10135,7938 10584,8357 10356,7811 10386,7455 "/>
   <polygon class="fil6" points="10775,7549 10965,8158 11067,8801 10902,9190 10648,9190 9911,8801 10069,9220 10488,9347 11029,9347 11257,9030 11321,8285 11067,7841 10996,7455 "/>
   <polygon class="fil6" points="991,5367 442,6038 442,7264 861,7811 2050,9543 3429,10638 4519,11697 5707,12819 7887,13272 9776,12725 12088,11727 12121,11118 12349,10605 11867,9995 10615,9609 9619,8999 9395,9124 10069,9639 11288,10122 12057,10571 11773,11341 8976,12276 9106,12560 8082,12946 6601,12756 5611,12337 3332,10028 1923,9060 831,7163 734,6203 1148,5657 "/>
   <polygon class="fil6" points="442,8255 800,8357 1212,8999 1280,9733 1085,10343 958,9418 734,8870 602,9449 734,9924 411,9609 348,8903 "/>
   <polygon class="fil6" points="411,9670 734,10249 1181,10470 2080,9830 1181,10089 1021,9703 632,9830 "/>
   <polygon class="fil6" points="4328,11727 4039,12210 4069,13238 4392,14105 4773,14364 6634,13653 6957,13238 6477,13137 6287,13462 5547,13818 5771,13302 5192,12370 4900,12047 4971,12591 5161,13200 5001,13686 4648,13716 4425,12979 4488,12116 "/>
   <polygon class="fil6" points="9878,12560 10135,12819 10521,12789 11163,12370 11288,11824 "/>
  </g>
 </g>
</svg>
