<?xml version="1.0" encoding="UTF-8"?>
<!DOCTYPE svg PUBLIC "-//W3C//DTD SVG 1.1//EN" "http://www.w3.org/Graphics/SVG/1.1/DTD/svg11.dtd">
<!-- Creator: CorelDRAW -->
<svg xmlns="http://www.w3.org/2000/svg" xml:space="preserve" width="128.895mm" height="141.18mm" version="1.1" style="shape-rendering:geometricPrecision; text-rendering:geometricPrecision; image-rendering:optimizeQuality; fill-rule:evenodd; clip-rule:evenodd"
viewBox="0 0 12890 14118"
 xmlns:xlink="http://www.w3.org/1999/xlink">
 <defs>
  <style type="text/css">
   <![CDATA[
    .fil3 {fill:#FFFFC2;fill-rule:nonzero}
    .fil4 {fill:#E9E9A2;fill-rule:nonzero}
    .fil2 {fill:#E3E38D;fill-rule:nonzero}
    .fil1 {fill:#FFFF80;fill-rule:nonzero}
    .fil14 {fill:#D2BEBE;fill-rule:nonzero}
    .fil18 {fill:#FFCCF0;fill-rule:nonzero}
    .fil12 {fill:#400101;fill-rule:nonzero}
    .fil17 {fill:#FFB3E9;fill-rule:nonzero}
    .fil15 {fill:#FF99E1;fill-rule:nonzero}
    .fil16 {fill:#FF80D9;fill-rule:nonzero}
    .fil10 {fill:#800101;fill-rule:nonzero}
    .fil19 {fill:#FF66D2;fill-rule:nonzero}
    .fil8 {fill:#B3FFFF;fill-rule:nonzero}
    .fil9 {fill:#A2E7F8;fill-rule:nonzero}
    .fil11 {fill:#90CDF0;fill-rule:nonzero}
    .fil5 {fill:#7EB4E9;fill-rule:nonzero}
    .fil6 {fill:#0018EB;fill-rule:nonzero}
    .fil7 {fill:aqua;fill-rule:nonzero}
    .fil20 {fill:black;fill-rule:nonzero}
    .fil13 {fill:#CCCCCC;fill-rule:nonzero}
    .fil0 {fill:white;fill-rule:nonzero}
   ]]>
  </style>
 </defs>
 <g id="Layer_x0020_1">
  <metadata id="CorelCorpID_0Corel-Layer"/>
  <g id="anim1696.ai">
   <polygon class="fil0" points="4069,6759 4799,8197 5210,8493 5027,6828 7925,7900 7263,6280 4115,6463 "/>
   <g>
    <polygon class="fil1" points="5759,8816 5542,9468 5944,11978 5418,12752 6006,12722 6812,9747 "/>
    <polygon class="fil2" points="5542,9281 6611,10196 6797,9777 5713,8678 "/>
    <polygon class="fil3" points="4302,11451 3744,7421 4023,6802 4239,6833 4737,8104 4953,9343 "/>
    <polygon class="fil4" points="3837,7391 4705,8445 4737,8042 4209,6833 3961,6926 "/>
    <polygon class="fil5" points="4921,9343 4364,11667 4705,13931 5976,12009 5511,9374 "/>
    <path class="fil6" d="M4533 12582c0,0 635,-1245 1143,-1740l-12 -188c0,0 -1033,1162 -1191,1554l60 374z"/>
    <path class="fil7" d="M4419 11947c0,0 790,-1264 1196,-1553l-59 -314c0,0 -956,1227 -1167,1734l30 133z"/>
    <path class="fil8" d="M4516 11114c0,0 859,-1180 1021,-1246l-37 -272c0,0 -768,938 -906,1173l-78 345z"/>
    <polygon class="fil9" points="4674,7980 4797,9281 5511,9436 5727,8692 5200,7948 5170,8568 "/>
    <polygon class="fil10" points="6100,12691 6192,11545 7371,7639 7866,7824 7433,6739 7771,6247 8269,6988 8859,8692 8859,12691 "/>
    <path class="fil10" d="M3712 7515l559 5237c-1569,83 -2222,-182 -2883,0l217 -3842 868 -1644 93 1923 1146 -1674z"/>
    <polygon class="fil11" points="4674,8383 5573,9328 5727,8738 5170,7980 5154,8522 4721,8026 "/>
    <path class="fil12" d="M6704 10242c0,0 1146,991 2123,341l46 -185 -836 14 -1255 -603 -78 433z"/>
    <path class="fil12" d="M2535 9343c0,0 -404,-619 -589,-805l527 -1209 62 2014z"/>
    <path class="fil13" d="M7755 7492c0,0 -387,73 -532,-532 -23,-97 122,654 122,654l555 242 -145 -364z"/>
    <path class="fil14" d="M4878 8218c0,0 242,73 0,-508 -242,-580 -435,-821 -435,-821l459 -49 339 1669 -363 -291z"/>
    <path class="fil15" d="M3983 7009l-1450 2249 -73 -2153 -1378 -3045 -435 -3167 2127 484 2273 1401 1596 -193 1282 -1136 1183 -894 1354 -509 -193 1064 -72 1234 -436 1305 -144 3578 -267 773 -798 -1111 -781 -567 -306 470 -218 -387 72 1233 629 943 1209 193 894 -387 629 -967 193 -1064c0,0 -386,-1354 291,-1112 676,242 2103,-288 1547,339 -556,628 -798,1692 -798,1692l-387 1112 -991 1161 -1185 726 -1256 169 -1162 -556 -1280 -1209 -702 -1717c0,0 -459,-241 -628,169l-339 -121z"/>
    <path class="fil16" d="M4456 6895c0,0 -403,-374 -403,-900 0,-525 -279,-278 -216,187 62,465 402,960 402,960l217 -247z"/>
    <path class="fil17" d="M4759 6784c0,0 -28,-425 -97,-479 -68,-55 -381,-342 -396,27 -15,370 67,549 67,549l426 -97z"/>
    <path class="fil18" d="M4868 6812c0,0 -383,-234 -589,164 -206,397 218,-123 315,-123 96,0 343,69 343,69l-69 -110z"/>
    <path class="fil18" d="M4512 2962c0,0 -1341,-1398 -3068,-1891l931 165 1287 521 1398 1068 -548 137z"/>
    <path class="fil17" d="M7882 2222c877,-685 1754,-1397 2631,-2082l-193 602 -27 1480 -548 1589 -82 2083 -83 1699c0,0 -573,-1152 -848,-1535 -275,-384 -658,-1562 -658,-1562l-192 -2274z"/>
    <path class="fil18" d="M12831 5401c0,0 243,-156 -519,-144 -762,12 -424,339 24,326 448,-13 -665,362 -665,362 0,0 -799,-508 -689,-133 109,375 882,387 882,387 0,0 -216,365 -277,593 -61,229 -110,1209 -230,1390 -120,181 -604,1074 -761,1184l676 -592 508 -1052 338 -1281 314 -545 399 -495z"/>
    <path class="fil17" d="M7174 2924c0,0 -2200,-631 -2514,1183 -315,1814 1501,1306 1717,1548 217,241 604,751 193,654 -411,-98 -1185,71 -1185,531 0,460 436,363 533,145 96,-218 991,-243 725,-49 -266,194 -461,49 -847,605 -386,557 73,871 145,580 73,-290 435,-677 653,-629 218,49 509,411 122,411 -387,0 -629,776 -484,920 145,144 267,71 315,-122 47,-192 240,-387 385,-387 146,0 289,267 73,364 -217,96 -386,508 -193,725 193,217 338,71 338,-122 0,-192 218,-580 315,-434 96,145 -98,749 24,967 121,218 533,627 436,289 -98,-338 -146,-796 -49,-869 96,-73 169,386 242,531 72,145 701,291 387,-24 -315,-314 -144,-507 -24,-507 120,0 289,338 458,338 169,0 -1,-289 96,-411 99,-121 653,-436 653,-436l-1378 73c0,0 -96,435 -169,242 -73,-193 -23,-411 -23,-411l-170 -97c0,0 -240,533 -193,-96 48,-629 -339,218 -363,73 -24,-146 50,-629 -289,-533 -340,97 339,-145 242,-314 -98,-170 -364,-434 -533,-459 -169,-25 169,-243 315,-194 145,49 0,-459 -460,-459 -460,0 385,-146 507,-97 122,49 -95,-485 -144,-798 -49,-314 386,-605 604,-822 218,-217 144,-1354 -73,-1620 -216,-266 -387,-289 -387,-289z"/>
    <path class="fil18" d="M7356 3950c0,0 -218,-967 -1450,-652 -1233,314 72,1499 411,1426 338,-72 676,170 894,-169 218,-338 145,-605 145,-605z"/>
    <path class="fil19" d="M11237 5462c0,0 411,-25 507,24 96,48 725,72 725,72l-241 291 -653 72 -338 -459z"/>
    <path class="fil19" d="M7925 3504l-460 -484 387 -798 1329 -1256 629 -411c0,0 -410,700 -435,918 -25,218 -265,1015 -387,1160 -122,145 -724,748 -822,1402 -98,654 -25,967 -25,967l-216 -1498z"/>
    <path class="fil16" d="M4104 3334c0,0 -337,557 -386,1620 -49,1064 -291,-799 -871,-2056 -580,-1256 -2152,-1475 -1596,-1619l919 436 1064 531 604 678 266 410z"/>
    <path class="fil20" d="M5023 2706c0,0 -966,-1500 -4472,-1838 0,0 23,1935 507,3192 484,1256 1282,2513 1354,3287 73,774 48,2007 48,2007 0,0 -95,604 436,-314 531,-919 675,-944 1038,-1862 364,-918 -506,678 -627,847 -122,169 -702,942 -702,942 0,0 -25,-1208 -49,-1571 -23,-363 -483,-1476 -1087,-2732 -604,-1257 -653,-3627 -653,-3627 0,0 2104,73 3965,1765l242 -96z"/>
    <path class="fil20" d="M4793 2754c0,0 -725,411 -955,895 -230,483 242,-49 303,-145 60,-97 1354,-932 2357,-702 1003,230 1160,544 1293,690 134,145 255,133 145,-73 -109,-206 -737,-966 -1378,-991 -640,-25 -1245,108 -1608,254l-157 72z"/>
    <path class="fil20" d="M3948 2971c0,0 169,377 -49,98 -218,-279 -484,-702 -1463,-1173 -979,-472 -1353,-666 -1160,-641 193,25 688,289 1172,495 484,206 1053,543 1246,810 193,267 254,411 254,411z"/>
    <path class="fil20" d="M6704 2476c0,0 1583,-1923 3601,-2442 0,0 327,-108 230,61 -96,169 -242,1173 -218,1450 24,278 -24,1064 -169,1318 -145,253 -314,1329 -338,1982 -24,652 59,2502 -206,3047 -266,544 -193,555 -351,192 -157,-362 -615,-1185 -1075,-1450 0,0 399,363 738,1983l-207 -24c0,0 -228,-1245 -796,-1946 -568,-702 409,-98 627,132 218,230 653,834 713,979 62,145 99,181 134,-24 36,-205 193,-1124 120,-1801 -73,-676 37,-1789 218,-2418 181,-628 411,-823 423,-1765 12,-941 266,-1631 266,-1631 0,0 -1473,216 -3468,2441l-242 -84z"/>
    <path class="fil20" d="M9676 663c0,0 462,-147 110,-122 -352,26 -1682,1246 -1886,1561 -205,314 -278,532 -97,326 181,-206 1004,-1101 1269,-1318 266,-218 604,-447 604,-447z"/>
    <path class="fil20" d="M10801 5558c0,0 -156,-264 -109,13 48,278 132,1512 -363,2200 -495,689 -677,774 -1257,822 -579,48 -1680,-230 -1764,-1704 0,0 0,-665 145,-1052 145,-387 -72,-133 -108,-61 -37,73 -436,822 -218,1547 218,726 689,1644 1765,1693 1075,49 1824,-1390 1909,-1705 84,-314 231,-761 109,-1220 -121,-460 -109,-533 -109,-533z"/>
    <path class="fil20" d="M12303 5821c0,0 123,-75 3,-148 0,0 -258,164 -586,145 -327,-18 -326,-343 -471,-380 0,0 -176,30 -218,42 -43,12 -24,66 42,151 66,84 228,396 592,408 363,12 638,-218 638,-218z"/>
    <path class="fil20" d="M12750 5464c0,0 97,-180 140,-54 0,0 -181,274 -272,364 -92,89 -460,605 -629,1492 -169,888 -558,1656 -1512,2496 -954,841 -2271,1154 -3529,224 -1258,-931 -1706,-1936 -1681,-1681 25,255 171,727 -59,509 -230,-218 -823,-1040 -1077,-1911 0,0 73,-158 134,-61 61,98 338,861 676,1319 338,458 73,-595 -96,-1319 -170,-724 120,0 181,158 60,157 473,1510 1257,2199 785,690 1500,1390 2745,1028 1244,-362 2296,-1486 2526,-2115 230,-629 348,-1437 628,-1897 278,-460 568,-751 568,-751z"/>
    <path class="fil20" d="M7516 7823c0,0 604,289 387,-146 -216,-434 -580,-1427 -580,-1427l-25 291c0,0 316,810 352,906 35,97 337,520 -267,12l133 364z"/>
    <path class="fil20" d="M5340 3930c0,0 -169,-73 -181,133 -12,206 120,436 205,218 84,-218 -24,-351 -24,-351z"/>
    <path class="fil20" d="M6537 4112c0,0 -108,-122 -242,47 -133,169 37,316 158,255 120,-61 84,-302 84,-302z"/>
    <path class="fil20" d="M8976 10479l-98 2078 -108 0c0,0 13,-1548 -24,-2055l230 -23z"/>
    <path class="fil20" d="M6969 9958c0,0 -857,2020 -822,2661l-194 0c0,0 183,-1305 666,-2925l350 264z"/>
    <path class="fil20" d="M4781 8206c0,0 -37,1052 181,1052 218,0 472,181 533,0 61,-181 120,-641 120,-641l169 230c0,0 -217,664 -108,1221 108,556 302,1776 302,1776l-37 339c0,0 -774,1124 -979,1608 -204,483 -206,411 -326,-85 -120,-495 -435,-1897 -435,-1897l616 -2370 122 37 -533 2223c0,0 217,1282 254,1596 37,315 98,640 182,266 85,-374 1040,-1608 1040,-1608 0,0 -400,-2066 -424,-2489 0,0 -712,59 -712,-206 0,-266 -134,-1341 -134,-1341l169 289z"/>
    <polygon class="fil20" points="4932,9494 4950,9415 4842,9379 4812,9469 "/>
    <path class="fil20" d="M3814 7403c0,0 423,3528 568,3831l-60 676 157 798 -266 -59c0,0 -458,-4075 -519,-4957l120 -289z"/>
    <path class="fil20" d="M2473 7765c0,0 -532,495 -713,2007 -181,1511 -196,2828 -267,2925 -72,96 -144,204 -205,-376 -61,-580 -325,-3553 1112,-5221l73 665z"/>
    <path class="fil20" d="M4443 12637c0,0 -1402,-86 -1559,-25 -157,61 -1476,593 -2056,544 -580,-48 -1028,-72 -737,85 0,0 617,37 859,73 241,35 882,95 1704,-206 822,-302 785,-448 1837,-158l-48 -313z"/>
    <path class="fil20" d="M5579 12661c0,0 533,-86 786,-49 254,37 1654,0 1861,-24 206,-24 1136,-180 1704,-96 568,84 1560,145 1560,145 0,0 495,-13 60,120 -435,134 -1196,-35 -1668,-35 -471,0 -1643,120 -1788,108 -146,-12 -944,-85 -1294,-73 -350,12 -979,134 -1063,134 -85,0 -376,84 -376,84l218 -314z"/>
   </g>
  </g>
 </g>
</svg>
