<?xml version="1.0" encoding="UTF-8"?>
<!DOCTYPE svg PUBLIC "-//W3C//DTD SVG 1.1//EN" "http://www.w3.org/Graphics/SVG/1.1/DTD/svg11.dtd">
<!-- Creator: CorelDRAW -->
<svg xmlns="http://www.w3.org/2000/svg" xml:space="preserve" width="149.166mm" height="119.497mm" version="1.1" style="shape-rendering:geometricPrecision; text-rendering:geometricPrecision; image-rendering:optimizeQuality; fill-rule:evenodd; clip-rule:evenodd"
viewBox="0 0 14917 11950"
 xmlns:xlink="http://www.w3.org/1999/xlink">
 <defs>
  <style type="text/css">
   <![CDATA[
    .fil0 {fill:yellow;fill-rule:nonzero}
    .fil2 {fill:#FA67A6;fill-rule:nonzero}
    .fil1 {fill:#FF6610;fill-rule:nonzero}
    .fil3 {fill:#67007D;fill-rule:nonzero}
   ]]>
  </style>
 </defs>
 <g id="Layer_x0020_1">
  <metadata id="CorelCorpID_0Corel-Layer"/>
  <g id="vc082647.ai">
   <g>
    <path class="fil0" d="M5498 7552c0,-1752 1095,-2867 1931,-3225 836,-359 1792,-398 2269,-378 478,19 837,179 1095,39 259,-139 717,-1015 717,-1015 0,0 -478,-617 -617,-1274 -139,-657 60,-1235 199,-1414 140,-179 359,-119 677,-20 318,100 677,518 816,637 140,120 379,538 379,538 0,0 358,-896 597,-1195 131,-163 338,-237 539,-244 167,-7 328,32 436,105 131,87 238,298 304,556 56,215 84,463 75,698 -20,518 -219,1235 -458,1354 0,0 299,876 398,1394 43,224 56,453 41,656 -19,264 -88,485 -200,598 -199,199 -597,239 -797,80 -199,-160 -458,-398 -597,-418 -139,-20 20,577 -80,1194 -99,617 -278,856 -597,956 0,0 40,896 -40,1493 -79,597 -557,976 -975,1095 -418,120 -677,0 -836,-159 -160,-160 -200,-299 -200,-299l-955 -40 -199 -59 139 -339c0,0 797,-20 1015,0 219,20 558,80 558,80 0,0 -60,179 119,259 180,79 618,40 737,-80 120,-119 259,-816 279,-916 20,-99 -80,-1035 -80,-1194 0,-160 179,-339 319,-498 139,-159 398,-1055 378,-1135 -20,-80 -120,-677 -20,-876 100,-199 538,-159 538,-159 0,0 517,438 677,378 159,-60 258,-80 298,-219 40,-139 -179,-1175 -179,-1175 0,0 -299,-816 -279,-916 20,-99 359,-477 478,-736 120,-259 100,-976 -219,-1036 -319,-59 -737,578 -737,578l-39 856c0,0 -219,239 -319,199 -99,-40 -458,-120 -498,-259 -39,-139 -498,-1055 -756,-1154 -259,-100 -478,0 -538,119 -59,119 -20,976 -20,976l717 935c0,0 -79,478 -219,657 -139,180 -617,717 -617,717l-777 378c0,0 -876,-159 -1413,-238 -538,-80 -1414,238 -1673,358 -258,119 -836,975 -1015,1254 -179,279 -299,1035 -398,1215 -100,179 -140,577 -140,577l-238 -259z"/>
    <path class="fil0" d="M500 11713c225,123 936,209 1694,231 118,3 238,5 356,6 177,0 351,-3 520,-10 183,-8 358,-20 519,-38 199,-22 375,-51 515,-89 876,-239 1732,-578 2250,-1075 517,-498 1174,-1593 1174,-1593l199 199c0,0 -517,1453 -497,1692 19,239 0,558 278,697 279,139 3246,-60 3823,-139 578,-80 796,-418 916,-637 119,-219 -458,-379 -697,-458 -239,-80 -2071,-259 -2071,-259l200 -995c0,0 -399,-419 -478,-21 -80,399 -239,1255 -239,1255 0,0 2150,318 2210,498 60,179 -418,378 -558,398 -139,20 -2608,119 -2707,60 -100,-60 -299,-279 -279,-439 20,-159 498,-1493 498,-1493 0,0 -120,-537 -179,-617 -60,-80 -498,-478 -498,-478 0,0 -558,1513 -976,1772 -418,259 -2011,1115 -2011,1115 0,0 -2707,-20 -3026,-40 -319,-20 119,-358 338,-338 219,20 3007,-498 3306,-717 298,-219 597,-836 656,-1115 60,-279 160,-1672 160,-1672l-418 40c0,0 -40,1652 -558,2130 -517,478 -1374,796 -2628,816 -1254,20 -1871,120 -2110,299 -118,88 -178,230 -182,375 -4,148 51,301 162,401 219,199 338,239 338,239z"/>
    <path class="fil1" d="M4403 10538c-478,299 -737,817 -458,897 278,79 1055,-339 1612,-638 558,-298 737,-597 1075,-955 339,-359 677,-876 777,-1135 99,-259 498,-139 597,59 100,200 120,419 20,757 -100,339 -358,1394 -338,1613 19,219 179,299 338,338 159,40 2250,0 2608,-159 358,-159 -60,-637 -239,-657 -179,-20 -1413,-139 -1393,-219 19,-80 318,-1254 458,-1433 139,-180 935,39 1055,19 119,-19 299,-139 438,-19 139,119 239,318 418,298 179,-20 517,-99 637,-259 119,-159 159,-477 139,-617 -20,-139 -179,-1015 -159,-1175 20,-159 398,-517 398,-517 0,0 458,-876 478,-1255 20,-378 -20,-955 40,-1095 60,-139 836,200 1075,240 239,39 398,-160 338,-419 -59,-258 -238,-716 -278,-896 -40,-179 -159,-756 -159,-756 0,0 278,-697 457,-936 180,-239 199,-955 -119,-1035 -319,-80 -558,756 -637,935 -80,180 -119,717 -279,757 -159,40 -358,80 -418,-60 -60,-139 -637,-915 -836,-1155 -199,-238 -518,-477 -717,-258 -199,219 -119,896 40,1174 159,279 517,598 577,757 60,159 20,637 -199,876 -219,239 -597,717 -776,776 -180,60 -697,60 -1533,0 -837,-59 -1832,100 -2469,717 -637,618 -817,1016 -956,1693 -139,676 -199,1871 -378,2369 -179,498 -159,876 -617,1015 -458,139 -617,358 -617,358z"/>
    <path class="fil2" d="M6987 9412c-555,-62 -1017,-439 -1201,-948 61,-417 108,-906 168,-1313 262,-380 700,-630 1196,-630 799,0 1450,650 1450,1450 0,441 -198,837 -510,1103 -7,-114 -37,-213 -84,-308 -99,-198 -498,-318 -597,-59 -64,165 -226,437 -422,705z"/>
    <path class="fil2" d="M11331 8272c-748,0 -1356,-608 -1356,-1356 0,-748 608,-1356 1356,-1356 550,0 1025,329 1237,801 -97,214 -182,375 -182,375 0,0 -378,358 -398,517 -12,101 46,484 96,790 -216,145 -475,229 -753,229z"/>
    <path class="fil2" d="M12306 3404c-141,0 -277,-20 -406,-58 83,-232 90,-501 48,-612 -60,-159 -418,-478 -577,-757 -128,-224 -205,-705 -126,-999 92,-101 199,-187 316,-258 168,23 354,182 487,341 199,240 776,1016 836,1155 60,140 259,100 418,60 160,-40 199,-577 279,-757 13,-29 30,-77 52,-135 77,176 119,370 119,574 0,798 -648,1446 -1446,1446z"/>
    <path class="fil3" d="M13160 2116c-43,-758 526,-1663 715,-1789 189,-126 420,-63 420,-63 0,0 -125,610 -210,673 -84,63 -252,63 -294,148 -42,84 21,315 21,315l-106 295 148 273 -168 442 -169 400 -273 42 -169 -126c0,0 -42,147 -189,63 -147,-84 -210,-400 -210,-400 0,0 -127,21 -232,-84 -105,-105 -42,-337 -42,-337l-105 -147c0,0 -295,-631 -358,-715 -63,-84 -190,105 -190,105 0,0 -273,21 -399,84 -127,63 42,273 126,358 84,84 253,168 253,168l-43 484 316 0 148 253 -22 231 64 337 336 42 21 231c0,0 274,84 316,169 42,84 105,441 105,441 0,0 400,-84 400,21 0,106 105,274 105,274 0,0 358,-189 379,-84 21,105 84,168 84,168l357 -316c0,0 -378,-189 -420,-336 -42,-148 84,-190 42,-274 -42,-84 -168,-484 -168,-484l-63 -189 294 -905c0,0 126,63 147,-84 21,-147 -63,-294 21,-400 84,-105 169,-210 169,-210l-232 -126 379 -653c0,0 189,169 189,821 0,652 -168,1031 -294,1178 -127,148 -274,295 -274,295 0,0 400,926 484,1220 84,295 84,884 21,1031 -63,148 -210,232 -295,253 -83,21 -210,105 -315,-21 -105,-126 -337,-400 -547,-442 -210,-42 -379,-148 -379,-148 0,0 -84,1179 -105,1347 -21,169 -63,589 -168,758 -105,168 -505,315 -505,315 0,0 -505,-294 -421,-315 84,-21 337,-190 379,-316 42,-126 105,-253 231,-337 126,-84 168,-273 168,-273 0,0 -84,-63 -21,-211 64,-147 -42,-294 -42,-294 0,0 -126,0 -126,-274 0,-273 252,-420 210,-610 -42,-189 -252,-84 -294,-189 -42,-105 231,-190 126,-379 -105,-189 -189,-232 -294,-168 -106,63 -211,400 -379,505 -169,105 -295,168 -463,315 -168,148 -147,358 -147,358l-295 42 -126 -168 0 -463c0,0 84,21 189,-63 105,-84 337,-358 526,-674 189,-315 252,-652 252,-652 0,0 -273,-252 -462,-526 -190,-274 -211,-884 -211,-1199 0,-316 42,-547 190,-631 147,-85 315,-43 463,42 147,84 399,315 568,441 168,127 379,527 462,716 85,189 127,442 127,442l274 -21z"/>
    <path class="fil3" d="M13517 2810c169,-21 316,-63 316,-63l210 -758 -357 -105 -169 926z"/>
    <path class="fil3" d="M13833 1000c252,64 484,190 484,190l147 -779 -169 -147 -567 442 105 294z"/>
    <path class="fil3" d="M13222 3126c0,0 -357,-127 -357,0 0,126 151,221 210,294 169,211 379,106 379,106l42 -253 -274 -147z"/>
    <path class="fil3" d="M11666 6177c0,0 -127,-85 -232,-63 -105,20 -231,-85 -421,42 -189,126 -252,315 -252,315 0,0 126,42 126,127 0,84 0,357 0,357l-42 295 63 147c0,0 -42,189 21,316 63,126 168,231 211,315 0,0 42,232 83,316 42,84 22,231 22,231l357 -147c0,0 -105,-147 0,-274 106,-126 147,-231 147,-231 0,0 -357,63 -378,-63 -21,-126 42,-316 42,-547 0,-232 0,-442 -63,-610 -63,-169 21,-63 210,-211 189,-147 106,-315 106,-315z"/>
    <path class="fil3" d="M11771 6724c-85,252 -22,1199 -22,1199 0,0 316,231 358,337 43,105 -105,189 -105,189l-400 -21 -21 168 337 22c0,0 -21,399 -126,294 -106,-105 -253,-274 -253,-274l-274 -210c0,0 -20,147 -147,168 -126,22 -336,-126 -336,-126l-190 168 -252 -63 -210 63 -253 -357 273 -295 -42 -210c0,0 148,-42 148,-148 0,-105 -169,-210 -169,-210l21 -316 -189 -147c0,0 116,-431 42,-515 -73,-84 -421,94 -421,94l-84 -284c0,0 -284,-21 -336,-73 -53,-53 -32,-379 -32,-379l-347 63 -105 -179 -295 -74 -347 200c0,0 305,274 421,379 115,105 315,11 315,11l53 252 242 63c0,0 31,263 137,369 105,105 315,126 315,126l10 252 390 63 21 116 -326 189c0,0 -53,-31 -11,74 43,105 242,137 242,137 0,0 -137,200 -147,242 -10,42 147,158 147,158 0,0 -210,126 -231,200 -21,73 10,157 10,157 0,0 -462,-42 -473,0 -11,42 -11,242 -11,242 0,0 -105,116 -94,158 10,42 63,221 63,274 0,52 -95,126 -95,126 0,0 -11,305 0,421 11,115 -52,242 -126,305 -74,63 -74,210 -53,252 21,42 -147,127 -221,158 -73,32 -147,84 -168,148 -21,63 31,147 105,136 74,-10 242,-105 295,-116 52,-10 105,106 157,116 53,11 159,-42 253,-52 95,-11 0,-348 0,-348 0,0 273,-1220 337,-1325 63,-105 126,-11 168,10 42,21 337,21 474,21 136,0 410,32 494,-10 84,-42 137,-42 137,-42 0,0 -11,137 -42,179 -32,42 0,94 73,137 74,42 179,136 527,105 347,-32 441,-95 652,-274 210,-179 263,-505 305,-642 42,-136 21,-463 21,-778 0,-316 -85,-852 -85,-852l-210 -169 -294 -52z"/>
    <path class="fil3" d="M10782 4241c-1094,-134 -2104,-197 -3156,245 -1052,442 -1789,1893 -1873,2462 -84,568 -168,2104 -463,2588 -294,484 -610,673 -1052,778 -442,105 -947,274 -1936,337 -989,63 -1662,126 -1830,231 -169,105 -169,526 42,610 210,84 757,190 1346,211 590,21 1094,126 2062,-105 968,-232 1557,-379 2189,-947 631,-568 1304,-1557 1451,-1978 0,0 232,442 400,526 0,0 -505,1641 -494,1799 10,158 179,578 431,631 253,53 1873,-10 2304,-73 431,-64 1221,-74 1421,-190 199,-116 441,-379 410,-463 -32,-84 -747,-284 -1052,-337 -305,-52 -747,-105 -1010,-94 -263,10 -695,-142 -758,-56 -63,88 -73,298 -73,298 0,0 263,10 304,63 43,53 43,189 159,189 115,0 347,-210 441,-189 95,21 168,158 221,210 53,53 211,95 158,127 -52,31 -116,231 -294,189 -179,-42 -200,-116 -295,-95 -95,21 -211,84 -347,74 -137,-10 -263,21 -305,-42 -42,-63 -148,-210 -242,-179 -95,32 -327,189 -453,189 -126,0 -231,0 -357,-52 -127,-53 -285,0 -263,-126 21,-127 115,-295 157,-306 43,-10 284,-37 358,-23 74,13 -84,-534 -105,-597 -21,-63 105,-95 116,-211 10,-115 -21,-168 -32,-221 -10,-52 137,-136 95,-231 -42,-95 -242,-211 -242,-211 0,0 179,-94 179,-157 0,-63 -64,-411 -64,-411 0,0 -231,0 -399,-126 -169,-126 -95,-358 -116,-505 -21,-147 -116,-200 -116,-200 0,0 -200,-84 -189,-137 10,-52 137,-178 147,-262 10,-85 -84,-179 -84,-179 0,0 -53,63 -84,21 -32,-42 -21,-284 -74,-368 -52,-85 -115,-116 -115,-116 0,0 168,-42 115,-137 -52,-95 -189,-179 -400,-211 -210,-31 -347,-52 -399,-20 -53,31 -32,105 -21,168 10,63 21,94 147,116 126,21 189,-32 179,52 -11,84 -32,116 -74,210 -42,95 21,148 42,200 21,53 74,64 84,137 11,74 -21,116 32,190 53,73 158,84 168,179 11,94 0,147 0,147 0,0 127,63 147,157 22,95 85,200 0,190 -84,-11 -252,63 -284,105 -31,42 74,116 85,179 10,63 -11,74 -74,168 -63,95 -116,95 -168,126 -53,32 -74,74 -32,158 42,84 74,137 0,169 -73,31 -95,-63 -168,-21 -74,42 -105,158 -63,242 42,84 115,147 52,158 -63,10 -168,-22 -168,94 0,116 0,242 -21,326 -21,84 -126,106 -211,116 -84,10 -136,-21 -210,95 -74,115 -147,221 -221,221 -73,0 -137,21 -168,63 -32,42 -53,52 -105,52 -53,0 -390,-31 -390,-31l-73 463c0,0 -358,31 -463,42 -106,10 -53,137 -137,179 -84,42 -316,126 -389,42 -74,-84 189,-421 252,-421 63,0 190,200 221,158 32,-42 -42,-442 53,-432 94,11 526,-52 557,-94 32,-42 200,-253 263,-253 64,0 190,74 242,0 53,-74 84,-242 74,-336 -10,-95 -147,-295 -116,-348 32,-52 432,-21 484,-63 53,-42 -200,-210 -231,-305 -32,-95 -84,-126 21,-158 105,-31 221,21 252,-73 32,-95 -10,-242 -10,-242 0,0 -106,-11 -106,-53 0,-42 -62,-200 -42,-284 22,-84 74,-63 74,-137 0,-73 -52,-252 -10,-347 42,-95 73,-32 136,-158 64,-126 42,-147 11,-273 -32,-127 -42,-105 -11,-200 32,-95 106,-42 84,-158 -20,-116 -157,-231 -147,-316 11,-84 21,-168 95,-168 74,0 179,21 210,-31 32,-53 84,-148 64,-242 -22,-95 -53,-137 -53,-137 0,0 179,-11 189,-95 11,-84 -31,-116 21,-231 53,-116 211,-337 211,-337 0,0 357,-84 400,-147 42,-63 42,-327 136,-400 95,-74 295,-11 379,10 84,21 400,-73 442,-105 42,-31 137,-52 137,-52 0,0 305,136 315,63 11,-74 -42,-232 32,-232 73,0 189,284 263,295 74,10 126,-53 189,-63 63,-11 147,0 232,-53 84,-52 179,-168 231,-158 53,11 168,0 232,42 63,42 31,106 126,116 94,11 242,63 305,84 63,21 95,-21 168,-73 74,-53 295,-95 347,-85 53,11 232,-10 232,-52 0,-42 -32,-316 -32,-316l-252 -55z"/>
    <path class="fil3" d="M6258 6495c179,21 231,137 326,74 95,-63 21,-284 -52,-347 -74,-64 -222,20 -242,73 -22,53 -32,200 -32,200z"/>
   </g>
  </g>
 </g>
</svg>
