<?xml version="1.0" encoding="UTF-8"?>
<!DOCTYPE svg PUBLIC "-//W3C//DTD SVG 1.1//EN" "http://www.w3.org/Graphics/SVG/1.1/DTD/svg11.dtd">
<!-- Creator: CorelDRAW -->
<svg xmlns="http://www.w3.org/2000/svg" xml:space="preserve" width="87.5586mm" height="93.2172mm" version="1.1" style="shape-rendering:geometricPrecision; text-rendering:geometricPrecision; image-rendering:optimizeQuality; fill-rule:evenodd; clip-rule:evenodd"
viewBox="0 0 8756 9322"
 xmlns:xlink="http://www.w3.org/1999/xlink">
 <defs>
  <style type="text/css">
   <![CDATA[
    .fil11 {fill:black}
    .fil2 {fill:#003378}
    .fil6 {fill:#004594}
    .fil3 {fill:#376E9D}
    .fil10 {fill:#4162B9}
    .fil9 {fill:#46B9FF}
    .fil7 {fill:#618AB0}
    .fil0 {fill:#661736}
    .fil16 {fill:#66C2DE}
    .fil17 {fill:#7490C7}
    .fil12 {fill:#9DD9FF}
    .fil13 {fill:#9DDEF5}
    .fil5 {fill:#B9C2E7}
    .fil18 {fill:#CCEBE6}
    .fil14 {fill:#D9F6FF}
    .fil8 {fill:#FF0090}
    .fil1 {fill:#FF666F}
    .fil15 {fill:#FF8F9D}
    .fil4 {fill:white}
   ]]>
  </style>
 </defs>
 <g id="__x0023_Layer_x0020_1">
  <metadata id="CorelCorpID_0Corel-Layer"/>
  <g id="vc112308.ai">
   <g>
    <polygon class="fil0" points="7163,2620 7159,2620 7151,2628 7134,2645 7121,2670 7109,2683 7096,2695 7083,2716 7071,2733 7054,2750 7042,2771 7029,2796 7012,2821 6991,2846 6974,2871 6958,2900 6941,2930 6920,2959 6903,2993 6882,3026 6866,3064 6840,3097 6819,3135 6803,3173 6782,3215 6757,3257 6740,3299 6719,3345 6698,3391 6677,3433 6656,3479 6635,3525 6614,3579 6597,3626 6576,3676 6560,3730 6539,3785 6522,3835 6505,3890 6488,3948 6476,4003 6455,4061 6442,4120 6425,4183 6417,4242 6404,4300 6392,4363 6384,4426 6379,4489 6371,4548 6363,4615 6354,4682 6354,4749 6350,4812 6350,4879 6350,4950 6350,5021 6350,5088 6358,5160 6367,5231 6375,5302 6379,5373 6388,5445 6400,5512 6417,5583 6425,5650 6446,5717 6463,5780 6480,5851 6497,5914 6513,5981 6530,6044 6555,6111 6572,6178 6597,6241 6618,6304 6643,6367 6664,6425 6689,6488 6715,6547 6740,6601 6765,6660 6794,6715 6819,6769 6845,6828 6870,6882 6895,6933 6924,6987 6954,7037 6979,7088 7008,7138 7037,7184 7067,7234 7088,7280 7113,7322 7138,7364 7167,7410 7188,7448 7213,7486 7243,7524 7268,7566 7289,7599 7310,7637 7335,7666 7356,7704 7377,7729 7402,7758 7423,7788 7440,7817 7457,7842 7473,7863 7486,7884 7507,7909 7515,7926 7528,7943 7540,7959 7553,7976 7565,8001 7582,8022 7586,8031 7586,8043 7574,8043 7553,8048 7540,8048 7524,8052 7507,8056 7490,8064 7469,8068 7448,8073 7423,8077 7394,8085 7364,8089 7335,8098 7301,8106 7272,8119 7234,8123 7197,8131 7159,8136 7121,8144 7079,8152 7037,8165 6995,8173 6954,8182 6903,8186 6857,8194 6807,8203 6761,8211 6710,8215 6656,8224 6606,8232 6555,8240 6497,8245 6442,8249 6388,8257 6333,8261 6275,8265 6216,8270 6157,8274 6098,8278 6040,8278 5981,8282 5922,8282 5864,8286 5801,8286 5742,8286 5679,8286 5621,8286 5562,8278 5499,8274 5440,8265 5378,8265 5319,8257 5260,8249 5197,8240 5143,8236 5080,8224 5021,8211 4967,8198 4908,8186 4854,8169 4795,8152 4740,8136 4690,8123 4632,8098 4577,8081 4514,8052 4460,8031 4397,8001 4338,7972 4271,7939 4212,7909 4145,7871 4078,7834 4011,7792 3948,7754 3877,7708 3810,7666 3743,7616 3676,7574 3605,7524 3533,7473 3466,7419 3395,7369 3324,7310 3257,7255 3185,7197 3118,7142 3047,7079 2976,7016 2909,6954 2842,6895 2771,6828 2708,6761 2641,6694 2582,6631 2515,6555 2452,6488 2389,6413 2330,6342 2268,6266 2209,6195 2150,6119 2096,6044 2041,5969 1991,5889 1936,5809 1890,5734 1844,5654 1798,5575 1756,5495 1718,5415 1672,5331 1639,5252 1605,5168 1576,5084 1542,5000 1517,4921 1492,4841 1475,4757 1454,4673 1442,4590 1425,4502 1421,4422 1413,4338 1413,4258 1413,4175 1417,4091 1421,4003 1429,3923 1442,3844 1463,3768 1480,3688 1505,3617 1530,3542 1559,3475 1589,3399 1626,3336 1664,3269 1710,3206 1752,3144 1798,3081 1848,3026 1899,2968 1953,2909 2008,2854 2062,2800 2125,2750 2180,2695 2247,2649 2305,2603 2377,2557 2439,2511 2506,2469 2578,2427 2649,2385 2716,2347 2791,2309 2863,2272 2938,2234 3005,2196 3081,2163 3156,2129 3232,2096 3307,2062 3382,2033 3454,1999 3529,1974 3605,1941 3676,1915 3747,1886 3823,1861 3898,1836 3969,1811 4036,1786 4112,1765 4179,1739 4246,1714 4309,1693 4376,1677 4439,1651 4502,1630 4560,1614 4623,1593 4678,1576 4736,1555 4787,1538 4841,1517 4887,1501 4937,1484 4979,1467 5021,1450 5059,1429 5097,1413 5134,1396 5176,1379 5210,1362 5248,1350 5281,1333 5319,1320 5357,1308 5390,1295 5424,1283 5461,1274 5491,1266 5528,1253 5558,1245 5591,1241 5621,1232 5654,1224 5684,1216 5713,1211 5742,1203 5772,1199 5801,1195 5834,1195 5860,1190 5889,1190 5918,1190 5948,1190 5973,1186 5998,1186 6023,1190 6052,1190 6073,1190 6098,1190 6119,1195 6145,1199 6166,1199 6191,1207 6212,1207 6237,1216 6258,1216 6279,1224 6295,1228 6321,1236 6337,1245 6358,1253 6379,1266 6400,1274 6417,1283 6434,1291 6451,1299 6467,1308 6484,1316 6501,1329 6513,1337 6530,1354 6543,1366 6560,1379 6572,1392 6589,1404 6601,1417 6614,1433 6631,1446 6643,1463 6652,1475 6669,1488 6677,1509 6689,1526 6702,1542 6715,1559 6727,1580 6740,1601 6748,1618 6765,1639 6773,1660 6786,1685 6798,1706 6811,1727 6819,1748 6836,1773 6845,1794 6857,1819 6870,1840 6878,1865 6886,1890 6899,1915 6912,1941 6924,1966 6933,1991 6941,2012 6954,2037 6962,2062 6970,2083 6983,2108 6991,2129 7004,2159 7008,2180 7016,2200 7029,2226 7037,2247 7042,2268 7050,2289 7058,2309 7067,2330 7075,2347 7079,2368 7083,2389 7092,2410 7096,2427 7104,2444 7109,2460 7117,2477 7125,2506 7134,2536 7138,2557 7151,2578 7151,2590 7159,2607 7159,2611 "/>
    <polygon class="fil1" points="7545,7716 7507,7716 7469,7721 7431,7725 7394,7729 7360,7737 7327,7742 7289,7750 7260,7758 7226,7763 7188,7771 7159,7779 7125,7788 7092,7792 7058,7800 7029,7809 7000,7817 6962,7825 6933,7834 6899,7838 6870,7846 6840,7855 6807,7863 6773,7871 6744,7880 6710,7884 6681,7892 6652,7897 6622,7905 6589,7909 6560,7918 6526,7926 6497,7934 6463,7939 6430,7943 6396,7947 6363,7951 6329,7955 6295,7955 6266,7959 6233,7968 6199,7968 6166,7968 6128,7968 6094,7972 6057,7972 6023,7972 5985,7972 5952,7972 5910,7968 5876,7964 5834,7959 5801,7955 5759,7951 5721,7947 5679,7939 5642,7934 5600,7922 5558,7913 5516,7905 5474,7897 5428,7880 5386,7871 5340,7855 5298,7842 5227,7817 5155,7796 5088,7775 5025,7754 4963,7729 4900,7712 4841,7687 4782,7670 4720,7645 4665,7628 4606,7603 4556,7582 4506,7561 4451,7540 4401,7524 4355,7503 4300,7482 4254,7461 4212,7440 4166,7419 4120,7402 4078,7381 4036,7360 3999,7343 3961,7322 3923,7301 3885,7280 3848,7264 3814,7243 3781,7222 3747,7205 3718,7188 3680,7167 3651,7146 3621,7130 3592,7109 3563,7092 3538,7071 3512,7050 3483,7033 3458,7012 3433,6991 3408,6975 3382,6958 3357,6937 3336,6916 3315,6899 3294,6882 3273,6861 3253,6840 3232,6819 3215,6803 3194,6782 3177,6765 3160,6744 3144,6727 3127,6706 3110,6685 3089,6669 3076,6648 3060,6631 3043,6610 3030,6593 3014,6572 2997,6551 2980,6534 2963,6509 2951,6493 2930,6472 2913,6451 2892,6430 2875,6413 2854,6388 2838,6371 2817,6346 2800,6329 2779,6308 2758,6291 2737,6266 2720,6249 2695,6224 2678,6208 2653,6187 2636,6166 2611,6145 2594,6124 2574,6103 2557,6086 2532,6065 2511,6044 2490,6023 2473,6006 2452,5985 2435,5964 2414,5943 2397,5927 2377,5906 2360,5885 2343,5868 2326,5847 2309,5830 2293,5809 2276,5793 2263,5772 2247,5755 2234,5734 2221,5717 2213,5700 2196,5684 2188,5667 2180,5650 2171,5633 2163,5617 2154,5600 2146,5583 2142,5570 2133,5537 2133,5512 2129,5482 2133,5457 2142,5432 2163,5415 2167,5407 2180,5399 2188,5394 2200,5386 2217,5382 2234,5378 2247,5369 2268,5369 2284,5357 2309,5357 2335,5348 2360,5344 2385,5340 2418,5336 2444,5327 2477,5323 2511,5315 2544,5311 2582,5306 2615,5302 2653,5302 2695,5302 2733,5298 2779,5294 2821,5294 2867,5294 2913,5294 2959,5294 3005,5298 3060,5302 3106,5302 3156,5311 3206,5315 3257,5323 3311,5331 3366,5340 3420,5348 3479,5361 3529,5369 3588,5386 3647,5403 3709,5420 3764,5436 3827,5457 3885,5478 3948,5503 4007,5524 4070,5549 4129,5575 4191,5608 4250,5637 4317,5671 4380,5705 4447,5746 4506,5780 4573,5826 4636,5868 4703,5914 4766,5960 4833,6015 4896,6065 4963,6124 5000,6157 5038,6195 5080,6228 5122,6266 5160,6300 5197,6337 5239,6371 5281,6404 5319,6438 5357,6472 5394,6501 5436,6534 5474,6564 5512,6597 5549,6627 5591,6660 5625,6685 5663,6715 5696,6744 5734,6769 5772,6798 5809,6828 5847,6853 5885,6882 5918,6903 5952,6928 5985,6949 6023,6979 6057,7000 6090,7025 6128,7046 6161,7071 6191,7088 6224,7109 6258,7130 6291,7146 6325,7167 6354,7184 6388,7201 6417,7218 6446,7230 6480,7247 6509,7260 6539,7280 6568,7289 6601,7306 6631,7318 6660,7331 6689,7339 6719,7348 6744,7356 6773,7369 6803,7373 6832,7381 6857,7389 6886,7398 6907,7402 6933,7406 6962,7410 6987,7415 7008,7419 7037,7419 7063,7419 7088,7423 7109,7419 7130,7419 7155,7419 7176,7419 7197,7419 7222,7419 7243,7419 7264,7419 7280,7415 7301,7415 7318,7415 7339,7415 7356,7415 7377,7415 7394,7415 7415,7415 7444,7410 7477,7410 7507,7406 7536,7406 7561,7402 7591,7402 7616,7402 7641,7402 7658,7402 7679,7402 7695,7398 7716,7398 7746,7398 7771,7402 7788,7402 7804,7410 7813,7419 7821,7431 7821,7448 7821,7465 7817,7477 7813,7486 7804,7494 7796,7503 7783,7507 7767,7515 7750,7524 7725,7536 7700,7553 7674,7570 7658,7578 7645,7595 7628,7612 7612,7628 7595,7645 7578,7666 7561,7691 "/>
    <polygon class="fil2" points="2741,1572 2733,1563 2720,1555 2708,1547 2695,1538 2678,1530 2666,1521 2641,1509 2620,1496 2599,1480 2574,1471 2548,1450 2523,1438 2494,1425 2465,1408 2448,1396 2431,1387 2414,1379 2397,1371 2381,1362 2364,1354 2347,1345 2330,1337 2309,1329 2293,1320 2272,1312 2255,1299 2234,1291 2217,1283 2196,1274 2180,1266 2159,1253 2142,1245 2117,1236 2100,1228 2075,1220 2058,1211 2037,1203 2020,1195 1995,1186 1978,1178 1957,1169 1936,1161 1915,1153 1899,1144 1874,1140 1857,1132 1832,1123 1806,1115 1777,1107 1752,1102 1723,1094 1698,1086 1668,1081 1643,1077 1614,1069 1584,1065 1555,1060 1526,1060 1496,1056 1467,1052 1442,1052 1413,1052 1383,1048 1354,1048 1320,1048 1295,1048 1262,1048 1232,1048 1203,1048 1178,1048 1148,1048 1119,1052 1090,1056 1065,1056 1035,1056 1006,1065 981,1065 951,1073 926,1073 897,1077 868,1081 842,1086 817,1090 792,1094 767,1098 746,1107 717,1111 696,1115 671,1123 654,1132 633,1136 612,1140 595,1148 578,1157 557,1161 541,1169 520,1174 507,1182 482,1195 457,1211 436,1228 423,1241 411,1253 407,1274 394,1299 390,1324 390,1354 394,1383 398,1408 411,1442 415,1459 419,1475 428,1492 436,1509 444,1526 453,1547 461,1563 469,1584 478,1601 486,1622 499,1639 511,1668 520,1689 528,1710 541,1735 553,1760 566,1786 578,1811 587,1840 604,1874 612,1899 625,1932 633,1962 650,1995 658,2029 671,2062 679,2096 696,2138 704,2171 717,2213 725,2251 738,2297 746,2339 754,2385 763,2431 775,2477 780,2527 788,2574 792,2628 801,2683 805,2733 813,2791 817,2854 822,2913 822,2976 826,3035 826,3097 830,3169 830,3236 830,3307 830,3378 830,3458 822,3525 826,3588 830,3642 838,3693 847,3735 859,3772 872,3806 889,3831 905,3848 926,3860 951,3869 977,3873 1002,3864 1031,3860 1065,3848 1098,3835 1127,3810 1165,3785 1199,3756 1241,3722 1274,3684 1316,3647 1358,3600 1404,3559 1442,3504 1488,3458 1530,3399 1576,3349 1618,3290 1664,3232 1710,3173 1756,3110 1802,3043 1848,2980 1890,2913 1936,2850 1983,2779 2029,2716 2071,2649 2117,2586 2159,2515 2196,2452 2238,2385 2284,2326 2322,2263 2360,2200 2397,2142 2435,2087 2465,2029 2498,1978 2527,1924 2557,1878 2582,1832 2611,1790 2632,1752 2657,1714 2674,1681 2691,1651 2703,1626 2720,1610 2724,1589 2733,1580 "/>
    <polygon class="fil3" points="3026,8504 2829,7586 2842,7591 2854,7599 2879,7616 2892,7624 2905,7633 2921,7645 2938,7654 2959,7666 2980,7679 3005,7691 3030,7708 3051,7721 3081,7733 3106,7750 3135,7767 3164,7779 3198,7796 3232,7817 3269,7834 3307,7851 3345,7867 3382,7884 3424,7901 3466,7918 3508,7939 3550,7959 3600,7980 3642,7997 3693,8014 3739,8031 3793,8052 3844,8068 3898,8089 3952,8106 4007,8127 4066,8144 4120,8165 4183,8182 4242,8198 4305,8211 4363,8228 4430,8249 4497,8265 4560,8278 4627,8291 4694,8303 4766,8320 4833,8333 4904,8341 4975,8354 5051,8366 5126,8374 5197,8383 5273,8391 5352,8400 5432,8404 5508,8408 5591,8416 5675,8421 5751,8421 5830,8421 5902,8421 5977,8425 6048,8421 6119,8421 6187,8416 6254,8416 6312,8412 6375,8408 6434,8408 6492,8404 6551,8400 6606,8395 6660,8391 6710,8387 6757,8379 6803,8370 6849,8366 6895,8362 6933,8354 6974,8345 7012,8337 7054,8333 7088,8320 7121,8312 7155,8303 7188,8295 7218,8286 7247,8278 7276,8265 7306,8257 7327,8249 7352,8236 7373,8228 7394,8219 7410,8207 7431,8194 7448,8186 7469,8177 7486,8165 7498,8152 7511,8144 7524,8136 7549,8115 7570,8098 7586,8073 7599,8052 7607,8035 7620,8018 7628,7985 7637,7959 7628,7930 7624,7909 7612,7892 7599,7880 7582,7863 7561,7859 7540,7851 7515,7851 7486,7842 7457,7842 7440,7842 7423,7846 7402,7846 7385,7851 7364,7851 7348,7855 7327,7855 7310,7859 7285,7863 7264,7863 7243,7867 7226,7871 7197,7871 7167,7880 7151,7880 7134,7888 7117,7892 7104,7901 7083,7901 7063,7909 7042,7909 7021,7918 7000,7926 6974,7930 6954,7939 6928,7947 6899,7951 6874,7955 6845,7964 6815,7968 6782,7976 6757,7980 6723,7985 6694,7993 6660,7997 6622,8006 6589,8010 6555,8014 6518,8018 6480,8022 6442,8022 6404,8031 6363,8031 6321,8031 6279,8031 6233,8031 6187,8031 6145,8031 6098,8027 6052,8027 6002,8022 5952,8014 5902,8010 5851,8006 5797,7997 5742,7993 5688,7985 5637,7976 5579,7959 5520,7947 5461,7934 5407,7918 5344,7901 5281,7884 5222,7863 5160,7846 5097,7825 5030,7800 4967,7775 4900,7750 4833,7721 4761,7695 4694,7666 4627,7637 4585,7616 4548,7599 4506,7578 4468,7561 4426,7536 4384,7515 4342,7494 4300,7473 4254,7448 4212,7423 4166,7398 4120,7373 4074,7343 4028,7318 3982,7289 3936,7260 3885,7226 3839,7192 3789,7159 3739,7130 3688,7092 3642,7058 3592,7025 3546,6991 3491,6949 3445,6916 3395,6874 3349,6840 3294,6798 3248,6761 3202,6719 3156,6681 3102,6639 3056,6593 3005,6551 2959,6509 2913,6463 2867,6421 2821,6375 2779,6329 2733,6283 2687,6237 2645,6191 2603,6145 2561,6094 2519,6048 2481,6002 2444,5956 2402,5906 2364,5855 2330,5805 2293,5755 2259,5705 2226,5654 2192,5604 2167,5558 2133,5503 2104,5453 2079,5399 2058,5348 2029,5298 2012,5243 1991,5193 1974,5143 1945,5076 1928,5009 1903,4946 1882,4887 1861,4824 1844,4761 1827,4703 1815,4644 1794,4585 1781,4531 1769,4472 1756,4418 1744,4363 1735,4313 1727,4258 1718,4212 1706,4158 1698,4108 1693,4061 1685,4011 1677,3965 1672,3919 1668,3877 1668,3835 1664,3793 1664,3751 1664,3709 1664,3672 1664,3634 1664,3600 1668,3567 1672,3533 1672,3500 1677,3466 1681,3437 1689,3412 1693,3382 1702,3353 1710,3328 1718,3307 1723,3278 1731,3261 1739,3240 1752,3223 1760,3202 1777,3185 1786,3173 1802,3160 1811,3148 1823,3135 1836,3127 1853,3118 1869,3110 1882,3106 1899,3097 1920,3097 1932,3097 1949,3097 1966,3097 1983,3102 2003,3106 2020,3114 2041,3123 2062,3135 2079,3148 2104,3165 2117,3173 2133,3185 2142,3194 2163,3211 2175,3223 2188,3236 2205,3253 2221,3269 2234,3286 2255,3303 2272,3320 2288,3341 2301,3357 2322,3374 2339,3395 2356,3416 2368,3433 2385,3450 2406,3470 2423,3491 2435,3508 2452,3525 2465,3542 2481,3563 2498,3579 2511,3596 2527,3617 2540,3634 2561,3655 2582,3680 2611,3701 2636,3722 2662,3739 2695,3756 2724,3768 2758,3781 2787,3789 2821,3797 2854,3806 2892,3814 2926,3814 2968,3823 3005,3823 3043,3823 3081,3823 3123,3818 3160,3814 3202,3810 3244,3802 3286,3797 3332,3785 3374,3776 3420,3768 3462,3756 3504,3743 3550,3730 3592,3718 3638,3701 3680,3688 3726,3672 3772,3655 3814,3634 3860,3617 3902,3600 3944,3579 3990,3559 4032,3542 4078,3521 4120,3500 4158,3483 4200,3458 4242,3441 4279,3420 4321,3399 4363,3378 4401,3362 4439,3336 4476,3315 4510,3299 4548,3278 4581,3257 4615,3236 4644,3219 4678,3202 4707,3181 4736,3165 4761,3148 4787,3131 4812,3114 4837,3097 4858,3085 4879,3072 4900,3056 4917,3043 4937,3026 4958,3014 4975,2997 4992,2988 5013,2972 5030,2959 5051,2947 5067,2934 5084,2921 5101,2909 5114,2892 5134,2884 5147,2867 5164,2859 5176,2846 5193,2833 5206,2817 5222,2808 5235,2791 5252,2783 5264,2771 5281,2762 5294,2745 5306,2733 5319,2720 5336,2708 5348,2695 5365,2687 5378,2670 5394,2662 5407,2649 5419,2636 5432,2620 5445,2611 5457,2594 5474,2582 5487,2574 5503,2561 5520,2544 5533,2536 5545,2519 5566,2506 5579,2494 5591,2481 5612,2469 5629,2456 5642,2439 5658,2427 5675,2410 5696,2398 5713,2381 5730,2368 5751,2351 5772,2339 5788,2322 5809,2309 5826,2293 5851,2280 5868,2263 5893,2247 5914,2234 5939,2217 5960,2200 5985,2184 6006,2167 6027,2159 6048,2142 6073,2129 6094,2112 6119,2104 6136,2092 6157,2079 6178,2071 6203,2062 6220,2054 6241,2045 6262,2037 6287,2033 6304,2024 6325,2016 6342,2012 6363,2008 6379,2004 6400,1999 6421,1999 6442,1999 6459,1995 6476,1991 6492,1991 6513,1995 6530,1995 6551,1995 6568,1999 6589,2004 6614,2008 6648,2016 6660,2020 6677,2029 6689,2037 6710,2045 6736,2062 6761,2083 6773,2092 6786,2104 6798,2112 6811,2129 6819,2142 6832,2154 6840,2167 6853,2184 6861,2196 6870,2213 6878,2234 6891,2251 6895,2268 6903,2284 6916,2301 6924,2326 6928,2343 6933,2364 6941,2385 6949,2414 6954,2431 6954,2456 6954,2477 6958,2498 6958,2523 6958,2544 6958,2569 6962,2594 6958,2615 6954,2641 6954,2662 6954,2687 6945,2708 6941,2733 6941,2754 6937,2779 6928,2800 6924,2825 6916,2846 6912,2867 6903,2888 6895,2913 6891,2930 6886,2955 6878,2972 6870,2997 6857,3014 6853,3035 6845,3051 6836,3072 6828,3093 6819,3114 6811,3127 6803,3148 6794,3165 6786,3181 6778,3194 6773,3211 6765,3223 6757,3240 6740,3269 6727,3294 6719,3315 6710,3336 6698,3353 6694,3366 6689,3374 6689,3382 6694,3391 6715,3382 6744,3349 6782,3320 6811,3286 6845,3261 6874,3227 6903,3198 6933,3169 6962,3139 6983,3106 7008,3072 7033,3043 7058,3009 7079,2976 7104,2947 7121,2913 7146,2884 7163,2846 7180,2817 7197,2779 7213,2750 7230,2716 7243,2683 7260,2649 7272,2615 7285,2582 7297,2548 7306,2515 7318,2481 7327,2448 7335,2414 7343,2385 7352,2351 7356,2318 7356,2280 7360,2251 7364,2217 7368,2184 7373,2150 7373,2121 7373,2087 7373,2054 7373,2024 7368,1991 7368,1962 7364,1928 7360,1899 7356,1865 7356,1840 7348,1807 7339,1777 7331,1744 7327,1718 7318,1689 7310,1660 7297,1630 7289,1605 7280,1576 7268,1551 7255,1526 7243,1501 7230,1471 7218,1450 7205,1425 7192,1404 7176,1375 7159,1354 7138,1329 7125,1312 7104,1291 7088,1270 7071,1249 7054,1232 7029,1211 7012,1195 6991,1178 6970,1161 6949,1140 6933,1123 6907,1111 6891,1098 6870,1081 6845,1065 6819,1052 6803,1039 6778,1027 6757,1014 6731,1002 6710,989 6689,981 6664,968 6643,956 6622,947 6597,939 6576,930 6555,922 6539,918 6513,905 6492,897 6472,889 6451,880 6430,872 6409,868 6392,859 6375,859 6354,851 6337,847 6321,842 6304,838 6287,830 6270,830 6258,822 6245,822 6216,813 6191,813 6170,805 6157,805 6128,805 6124,805 6119,796 6115,784 6103,763 6090,738 6078,721 6069,704 6057,687 6044,671 6031,654 6019,633 6006,612 5990,595 5969,570 5952,549 5935,528 5918,511 5893,486 5872,465 5855,444 5834,428 5809,407 5784,390 5759,373 5734,360 5704,344 5679,331 5650,323 5625,314 5591,302 5566,293 5541,285 5520,277 5499,268 5478,268 5461,260 5445,256 5415,247 5390,243 5365,239 5348,243 5327,243 5306,251 5285,256 5264,272 5239,285 5218,306 5197,314 5185,327 5168,340 5151,356 5126,369 5109,381 5093,394 5076,407 5059,419 5051,436 5038,448 5030,465 5017,478 5009,495 5000,507 4992,520 4979,549 4975,574 4967,595 4963,616 4958,633 4958,654 4958,675 4963,687 4958,679 4954,675 4942,662 4929,650 4908,629 4891,608 4879,591 4866,578 4854,570 4841,557 4824,541 4812,524 4795,507 4778,495 4757,474 4740,457 4724,440 4707,428 4682,407 4665,390 4644,373 4623,356 4598,340 4577,323 4552,306 4531,285 4506,268 4476,247 4451,231 4426,214 4397,197 4367,180 4338,163 4313,151 4279,134 4250,122 4225,105 4196,96 4162,80 4133,67 4103,59 4074,50 4036,42 4007,29 3973,21 3940,17 3906,13 3873,8 3839,4 3806,4 3772,0 3735,0 3701,0 3667,4 3634,4 3596,13 3563,21 3529,29 3479,38 3433,50 3391,67 3345,88 3303,105 3261,126 3219,143 3185,172 3144,193 3110,218 3076,247 3043,277 3009,302 2976,331 2947,365 2921,398 2888,432 2859,465 2833,499 2808,537 2779,570 2758,608 2733,641 2716,679 2691,717 2670,754 2649,792 2632,830 2615,868 2599,905 2582,943 2569,981 2553,1019 2536,1056 2523,1090 2511,1128 2498,1161 2485,1199 2477,1236 2469,1274 2456,1304 2448,1337 2439,1366 2435,1400 2423,1429 2414,1463 2410,1488 2406,1517 2397,1542 2397,1568 2389,1593 2385,1614 2381,1635 2377,1656 2377,1672 2377,1689 2368,1714 2368,1739 2368,1752 2368,1756 2360,1756 2339,1765 2322,1773 2301,1781 2284,1790 2259,1802 2247,1807 2230,1811 2213,1819 2196,1827 2180,1840 2163,1848 2146,1857 2133,1869 2112,1878 2096,1890 2075,1903 2058,1920 2033,1932 2012,1945 1991,1962 1974,1978 1945,1995 1924,2012 1899,2029 1878,2050 1853,2066 1827,2087 1802,2108 1777,2133 1752,2154 1727,2180 1702,2205 1672,2230 1647,2255 1618,2280 1593,2309 1568,2343 1538,2368 1509,2402 1480,2431 1450,2469 1421,2498 1392,2536 1366,2574 1337,2611 1308,2645 1278,2687 1249,2724 1220,2771 1186,2808 1161,2854 1127,2896 1102,2947 1069,2988 1039,3035 1014,3077 989,3118 960,3165 935,3211 910,3257 889,3307 863,3349 842,3399 822,3445 801,3496 784,3542 767,3588 750,3634 738,3684 717,3730 704,3781 687,3827 679,3877 662,3923 650,3973 641,4024 633,4070 625,4116 616,4166 608,4212 604,4263 595,4309 591,4359 587,4409 583,4455 574,4502 570,4548 566,4594 566,4644 562,4686 557,4732 557,4778 557,4824 557,4870 557,4912 557,4954 562,5000 562,5038 566,5084 566,5126 574,5172 574,5210 578,5248 578,5285 587,5327 587,5365 595,5403 595,5440 604,5478 604,5512 612,5545 616,5583 625,5617 633,5650 637,5679 641,5713 650,5742 654,5772 662,5801 671,5830 683,5864 692,5893 704,5922 717,5952 733,5985 746,6015 759,6044 775,6073 792,6111 813,6140 830,6170 851,6199 868,6233 889,6262 905,6296 926,6325 951,6358 972,6384 993,6417 1014,6451 1039,6480 1065,6509 1086,6543 1111,6572 1136,6601 1157,6631 1186,6664 1211,6694 1236,6723 1262,6752 1287,6782 1308,6807 1337,6836 1358,6866 1383,6895 1413,6920 1438,6949 1459,6979 1484,7004 1505,7029 1534,7058 1555,7083 1580,7109 1601,7138 1626,7163 1647,7184 1672,7209 1693,7230 1714,7260 1731,7280 1752,7301 1773,7327 1794,7348 1806,7369 1823,7389 1844,7410 1861,7427 1874,7448 1890,7465 1907,7486 1920,7507 1928,7524 1945,7540 1957,7561 1970,7578 1983,7595 1999,7616 2012,7633 2029,7654 2041,7670 2058,7687 2071,7708 2087,7729 2104,7746 2117,7767 2133,7788 2150,7804 2167,7825 2184,7842 2196,7859 2217,7880 2230,7897 2247,7918 2263,7934 2284,7955 2297,7972 2314,7989 2330,8006 2347,8022 2360,8043 2377,8060 2393,8077 2410,8098 2423,8110 2435,8127 2452,8140 2465,8157 2477,8173 2490,8186 2506,8203 2519,8215 2532,8228 2544,8240 2557,8253 2569,8265 2590,8291 2611,8316 2628,8333 2649,8349 2657,8362 2674,8374 2682,8383 2691,8391 2695,8400 2699,8400 "/>
    <polygon class="fil3" points="1438,6346 1425,6337 1404,6333 1387,6329 1375,6325 1354,6321 1337,6316 1312,6308 1291,6304 1262,6296 1236,6291 1207,6287 1178,6283 1148,6279 1119,6279 1098,6275 1081,6270 1065,6270 1044,6270 1027,6270 1010,6270 993,6270 977,6270 956,6270 939,6270 922,6270 905,6270 884,6270 868,6270 851,6275 830,6279 813,6279 792,6283 771,6283 754,6287 733,6291 717,6296 700,6300 679,6308 662,6308 641,6316 625,6321 608,6329 591,6337 574,6346 557,6354 541,6363 520,6367 503,6375 482,6384 469,6392 453,6396 440,6404 428,6413 419,6421 390,6438 373,6451 352,6467 335,6480 314,6493 302,6509 289,6518 281,6534 260,6555 251,6585 239,6601 239,6622 231,6635 231,6652 231,6677 222,6689 201,6694 180,6694 155,6685 130,6669 117,6656 105,6639 92,6622 84,6601 75,6576 67,6551 63,6534 63,6518 63,6497 63,6484 59,6459 59,6442 59,6413 63,6392 63,6363 71,6337 80,6308 88,6279 92,6262 96,6245 101,6228 109,6216 113,6195 117,6178 126,6161 134,6149 143,6132 151,6111 159,6094 172,6078 180,6061 189,6044 201,6027 214,6006 222,5990 235,5969 247,5952 260,5935 272,5914 285,5897 302,5881 319,5864 335,5847 352,5830 369,5809 386,5793 402,5776 419,5759 440,5742 461,5725 478,5705 499,5688 520,5671 545,5654 566,5637 587,5621 612,5608 637,5591 662,5575 687,5562 713,5545 742,5533 767,5520 801,5508 830,5491 859,5482 889,5466 914,5453 943,5440 972,5432 993,5420 1018,5411 1044,5403 1069,5394 1090,5386 1111,5378 1132,5373 1157,5369 1174,5361 1195,5357 1215,5352 1232,5352 1249,5348 1266,5344 1278,5340 1299,5340 1329,5340 1358,5340 1383,5340 1408,5348 1429,5352 1450,5361 1467,5369 1484,5378 1496,5386 1513,5394 1526,5407 1534,5424 1542,5432 1555,5453 1572,5478 1580,5508 1593,5537 1605,5566 1605,5579 1609,5596 1609,5612 1609,5642 1609,5663 1605,5688 1601,5717 1597,5751 1589,5776 1584,5809 1580,5822 1576,5839 1572,5855 1572,5876 1563,5889 1559,5906 1555,5922 1551,5943 1547,5960 1542,5977 1542,5994 1538,6010 1526,6040 1517,6073 1513,6086 1509,6103 1505,6119 1501,6136 1492,6161 1484,6191 1475,6216 1467,6245 1459,6262 1450,6283 1446,6300 1442,6321 1438,6337 "/>
    <polygon class="fil2" points="922,5223 914,5223 901,5227 880,5235 855,5243 838,5248 822,5256 801,5264 784,5273 759,5281 738,5294 713,5306 692,5323 666,5336 641,5348 612,5369 591,5386 578,5394 562,5403 549,5411 536,5424 520,5432 511,5445 495,5453 482,5470 469,5478 457,5491 444,5499 432,5516 419,5528 407,5541 390,5554 381,5570 365,5583 352,5596 339,5612 327,5629 314,5642 306,5658 293,5679 285,5696 268,5709 260,5725 247,5742 239,5759 226,5772 218,5788 210,5805 201,5822 193,5839 184,5851 172,5868 163,5881 151,5910 143,5943 126,5969 117,5998 109,6023 105,6052 96,6073 88,6103 84,6124 84,6149 80,6170 75,6191 71,6208 71,6228 71,6245 71,6262 71,6275 71,6291 71,6308 71,6329 71,6337 75,6346 75,6337 80,6325 84,6304 96,6283 96,6262 109,6245 117,6224 126,6208 134,6187 147,6166 159,6140 176,6119 189,6094 205,6069 222,6044 243,6019 260,5994 285,5969 298,5952 310,5943 323,5931 335,5918 348,5906 360,5893 373,5876 390,5868 402,5851 419,5839 436,5830 453,5818 465,5801 482,5793 503,5780 520,5772 541,5759 557,5746 578,5734 599,5725 616,5713 637,5700 654,5688 675,5679 692,5667 708,5658 725,5650 746,5642 763,5629 780,5621 796,5612 813,5604 830,5591 847,5583 859,5575 876,5570 889,5562 905,5554 918,5545 935,5537 960,5524 989,5512 1014,5499 1039,5487 1065,5474 1086,5466 1102,5453 1119,5445 1140,5432 1157,5424 1165,5415 1182,5407 1195,5403 1203,5394 1220,5378 1232,5369 1232,5357 1232,5348 1224,5340 1207,5327 1186,5315 1169,5306 1144,5294 1119,5281 1090,5273 1065,5264 1035,5256 1010,5243 981,5235 964,5235 943,5227 935,5223 "/>
    <polygon class="fil3" points="5902,759 5881,750 5864,746 5834,738 5813,729 5797,725 5784,721 5767,717 5751,717 5734,717 5717,717 5700,717 5684,717 5658,713 5642,713 5621,713 5600,717 5575,717 5558,717 5533,717 5512,725 5487,729 5461,734 5436,738 5415,746 5386,754 5361,767 5336,775 5311,788 5281,796 5260,805 5235,813 5218,826 5193,834 5176,842 5160,851 5147,859 5118,872 5097,884 5076,893 5067,901 5038,910 5025,918 5013,918 5005,910 4992,897 4984,880 4975,863 4975,851 4967,830 4967,817 4963,792 4958,775 4954,754 4954,734 4954,708 4954,683 4954,662 4954,637 4954,612 4954,587 4954,557 4963,537 4967,511 4971,482 4975,461 4984,440 4992,415 5005,394 5013,373 5025,356 5038,340 5055,323 5072,310 5093,302 5109,289 5126,277 5143,268 5164,256 5181,247 5197,235 5218,226 5235,218 5256,210 5273,201 5290,193 5311,184 5327,176 5348,172 5369,163 5390,163 5407,155 5432,155 5453,155 5478,155 5499,155 5524,155 5549,155 5579,163 5604,163 5629,172 5658,180 5688,193 5717,201 5751,214 5767,222 5784,231 5801,239 5818,247 5834,256 5851,268 5864,277 5885,285 5897,293 5910,306 5927,314 5943,327 5956,335 5969,348 5985,360 5998,369 6010,381 6023,394 6040,407 6052,419 6073,444 6098,469 6107,482 6119,495 6132,507 6145,520 6161,545 6178,570 6195,595 6216,625 6228,641 6241,666 6254,692 6266,713 6279,734 6287,754 6295,771 6308,788 6321,813 6333,842 6337,855 6342,859 6187,822 "/>
    <polygon class="fil4" points="5826,713 5822,704 5818,692 5813,671 5809,654 5793,625 5780,599 5767,570 5751,545 5742,528 5730,511 5717,499 5704,482 5692,465 5679,457 5667,440 5654,432 5637,419 5621,407 5604,398 5587,394 5566,386 5549,381 5528,381 5512,381 5491,377 5470,377 5449,381 5432,381 5411,381 5394,390 5378,390 5361,398 5344,407 5327,411 5311,419 5302,432 5281,440 5273,448 5256,461 5248,474 5222,490 5206,511 5189,541 5172,566 5160,591 5151,616 5143,641 5143,671 5134,692 5134,713 5134,729 5139,750 5143,767 5147,784 5151,792 5155,809 5164,826 5172,842 5181,851 5185,855 5189,851 5210,838 5227,830 5243,822 5264,813 5294,805 5319,792 5348,784 5361,775 5378,775 5394,767 5411,767 5424,763 5445,759 5461,754 5478,754 5495,750 5516,750 5537,750 5558,750 5570,746 5587,746 5604,746 5621,746 5650,746 5679,746 5704,746 5725,750 5746,750 5767,754 5780,754 5797,754 5805,754 5818,754 5826,759 5834,763 "/>
    <polygon class="fil5" points="5650,746 5650,738 5654,729 5654,713 5658,700 5654,675 5650,654 5646,633 5642,612 5633,587 5625,562 5612,537 5600,516 5579,495 5562,474 5537,457 5516,448 5487,436 5461,432 5432,428 5415,432 5390,432 5369,440 5352,444 5336,457 5315,465 5298,482 5281,495 5269,507 5252,520 5239,537 5227,549 5218,570 5202,578 5189,595 5181,608 5172,620 5160,641 5151,666 5143,679 5139,696 5134,700 5134,708 5134,700 5134,679 5134,662 5134,645 5139,629 5143,612 5147,587 5155,570 5164,545 5181,524 5193,503 5210,478 5231,457 5256,436 5281,415 5302,398 5327,381 5352,369 5378,360 5403,352 5424,348 5453,348 5470,344 5499,348 5520,348 5545,356 5566,360 5587,369 5612,381 5633,390 5650,398 5671,419 5688,432 5709,453 5725,469 5742,495 5755,516 5772,541 5780,557 5788,578 5797,595 5809,616 5818,633 5822,645 5826,658 5830,671 5834,696 5847,729 5851,746 5847,759 5830,754 5809,754 5788,754 5776,754 5759,754 5742,754 5725,750 5704,750 5688,746 5675,746 5654,746 "/>
    <polygon class="fil6" points="2104,6208 2104,6233 2108,6262 2112,6287 2125,6312 2129,6337 2138,6367 2146,6396 2159,6425 2167,6451 2175,6484 2188,6509 2200,6543 2213,6572 2226,6601 2242,6631 2259,6664 2272,6689 2284,6723 2301,6748 2318,6782 2330,6807 2347,6836 2364,6866 2381,6895 2397,6920 2414,6949 2435,6979 2452,7008 2469,7033 2485,7063 2502,7092 2519,7121 2536,7146 2553,7172 2565,7192 2582,7222 2599,7243 2615,7268 2632,7289 2649,7318 2666,7335 2678,7356 2695,7377 2708,7398 2720,7415 2733,7436 2750,7452 2762,7473 2771,7486 2783,7503 2796,7515 2808,7532 2825,7553 2842,7578 2854,7591 2863,7607 2871,7612 2875,7616 3014,8370 3005,8370 2997,8362 2984,8354 2968,8345 2955,8337 2942,8333 2930,8324 2917,8316 2900,8303 2888,8295 2875,8286 2863,8278 2846,8265 2825,8253 2808,8240 2791,8228 2775,8211 2758,8194 2741,8182 2724,8165 2708,8144 2691,8127 2674,8110 2657,8094 2641,8073 2620,8052 2607,8031 2594,8014 2578,7985 2561,7964 2544,7939 2527,7918 2511,7892 2498,7863 2481,7838 2465,7817 2456,7796 2448,7788 2439,7767 2431,7758 2423,7742 2414,7729 2406,7712 2397,7700 2385,7683 2377,7666 2368,7649 2364,7637 2356,7616 2347,7603 2339,7586 2330,7570 2322,7553 2314,7532 2305,7515 2297,7498 2288,7477 2280,7457 2272,7440 2263,7419 2255,7398 2247,7381 2242,7356 2234,7339 2226,7318 2221,7297 2217,7276 2209,7255 2200,7230 2196,7209 2188,7184 2184,7163 2175,7138 2171,7113 2163,7092 2163,7067 2150,7042 2150,7016 2142,6987 2138,6962 2133,6933 2129,6907 2125,6882 2125,6857 2117,6828 2112,6798 2108,6769 2104,6748 2100,6723 2100,6694 2096,6673 2096,6652 2092,6631 2087,6610 2087,6585 2087,6568 2083,6547 2083,6530 2083,6513 2083,6497 2079,6480 2079,6463 2075,6446 2075,6434 2075,6404 2075,6384 2075,6358 2075,6337 2075,6321 2079,6304 2079,6287 2079,6270 2083,6258 2087,6249 2087,6233 2092,6224 2096,6208 "/>
    <polygon class="fil7" points="3517,2372 3491,2381 3475,2389 3450,2393 3429,2398 3403,2398 3382,2398 3357,2393 3332,2393 3307,2385 3286,2377 3257,2368 3236,2360 3211,2347 3181,2335 3160,2318 3135,2305 3110,2284 3085,2263 3060,2242 3039,2226 3014,2196 2993,2175 2968,2150 2951,2125 2938,2108 2930,2096 2917,2079 2909,2066 2900,2050 2892,2037 2884,2020 2875,2008 2867,1991 2859,1974 2850,1957 2842,1941 2833,1924 2825,1911 2821,1895 2817,1878 2808,1861 2804,1844 2796,1827 2791,1819 2771,1802 2758,1790 2737,1781 2720,1781 2699,1781 2682,1794 2657,1807 2641,1823 2620,1840 2603,1865 2594,1878 2582,1895 2574,1907 2565,1924 2557,1941 2548,1957 2544,1974 2536,1995 2527,2012 2519,2029 2515,2045 2511,2066 2502,2083 2498,2104 2494,2125 2494,2150 2490,2167 2490,2188 2490,2205 2490,2230 2490,2247 2490,2272 2490,2289 2494,2314 2494,2330 2498,2351 2502,2368 2511,2389 2519,2406 2527,2427 2536,2444 2544,2465 2557,2477 2569,2498 2582,2515 2599,2532 2611,2544 2628,2561 2649,2574 2670,2590 2687,2599 2708,2611 2724,2620 2745,2628 2762,2641 2783,2649 2804,2657 2825,2666 2842,2666 2863,2674 2879,2678 2900,2687 2917,2687 2938,2691 2959,2695 2976,2699 2997,2699 3014,2699 3030,2699 3047,2703 3064,2703 3081,2703 3097,2703 3118,2703 3135,2699 3152,2695 3169,2695 3185,2695 3202,2687 3219,2687 3232,2683 3248,2683 3278,2670 3307,2662 3332,2649 3362,2641 3382,2624 3408,2611 3429,2599 3454,2586 3470,2569 3487,2557 3504,2540 3521,2527 3529,2515 3542,2502 3550,2490 3558,2481 3567,2456 3571,2439 3575,2423 3575,2410 3567,2389 3558,2377 3542,2368 3529,2368 3521,2368 "/>
    <polygon class="fil8" points="7402,7955 7373,7968 7348,7985 7322,7993 7297,8010 7268,8018 7243,8031 7213,8043 7188,8056 7159,8064 7130,8077 7100,8085 7071,8098 7042,8106 7012,8115 6983,8123 6954,8131 6924,8136 6891,8144 6857,8144 6832,8152 6794,8157 6765,8165 6731,8165 6698,8173 6664,8173 6635,8177 6597,8182 6568,8182 6530,8182 6497,8182 6463,8182 6430,8186 6392,8182 6354,8182 6316,8177 6283,8177 6245,8173 6207,8169 6170,8165 6136,8161 6094,8152 6057,8148 6015,8140 5977,8136 5939,8127 5902,8119 5860,8106 5822,8102 5780,8089 5738,8077 5696,8064 5658,8052 5612,8039 5570,8022 5528,8010 5487,7997 5445,7980 5399,7964 5357,7947 5311,7930 5264,7909 5222,7892 5176,7871 5134,7855 5084,7830 5038,7809 4992,7788 4950,7767 4904,7742 4862,7721 4820,7700 4778,7679 4736,7654 4694,7637 4652,7612 4615,7591 4573,7570 4535,7553 4497,7532 4460,7515 4422,7490 4384,7469 4346,7448 4313,7427 4279,7410 4242,7389 4212,7373 4183,7356 4149,7335 4120,7318 4087,7297 4057,7280 4028,7264 4003,7247 3978,7230 3952,7218 3923,7201 3898,7184 3873,7167 3848,7155 3827,7138 3806,7125 3785,7109 3764,7100 3747,7083 3726,7071 3709,7063 3693,7054 3676,7042 3663,7033 3651,7025 3642,7016 3613,6995 3596,6983 3584,6970 3575,6966 3567,6954 3575,6958 3584,6962 3605,6975 3617,6979 3638,6987 3655,6995 3680,7008 3697,7016 3726,7025 3751,7033 3781,7046 3810,7058 3839,7071 3877,7088 3915,7104 3948,7117 3986,7134 4024,7146 4066,7167 4108,7184 4149,7201 4196,7218 4242,7239 4288,7255 4338,7272 4384,7289 4434,7310 4485,7327 4535,7348 4590,7369 4644,7389 4694,7406 4749,7423 4799,7440 4854,7457 4908,7477 4967,7494 5017,7511 5076,7532 5126,7545 5185,7561 5235,7574 5294,7591 5348,7607 5407,7620 5461,7637 5520,7649 5570,7662 5621,7674 5675,7683 5730,7691 5780,7704 5830,7712 5881,7721 5931,7729 5977,7729 6027,7737 6073,7742 6119,7746 6166,7746 6207,7750 6249,7750 6295,7750 6333,7742 6371,7742 6404,7737 6442,7737 6476,7733 6513,7729 6543,7729 6576,7729 6606,7721 6635,7721 6660,7716 6689,7716 6719,7712 6744,7712 6769,7708 6794,7708 6815,7704 6840,7700 6857,7695 6882,7695 6899,7691 6920,7687 6941,7683 6962,7683 6974,7679 6991,7679 7008,7674 7029,7674 7054,7666 7088,7666 7113,7654 7138,7649 7159,7641 7188,7637 7205,7628 7230,7620 7251,7616 7276,7607 7297,7599 7318,7591 7339,7582 7364,7578 7389,7570 7415,7561 7444,7553 7477,7545 7498,7524 7519,7503 7545,7486 7570,7465 7591,7448 7616,7440 7637,7427 7666,7419 7683,7410 7704,7402 7725,7402 7750,7402 7767,7402 7788,7410 7804,7419 7821,7431 7834,7448 7838,7465 7834,7490 7830,7519 7821,7532 7813,7545 7804,7561 7796,7578 7783,7595 7771,7612 7758,7628 7746,7649 7729,7666 7712,7683 7691,7704 7674,7721 7654,7742 7633,7758 7612,7779 7591,7800 7570,7817 7545,7838 7524,7859 7498,7880 7473,7897 7448,7918 7427,7939 "/>
    <polygon class="fil9" points="7318,7817 7314,7817 7306,7817 7289,7821 7272,7830 7260,7834 7247,7838 7234,7842 7218,7846 7201,7855 7184,7859 7167,7863 7151,7871 7125,7876 7104,7880 7075,7888 7054,7892 7025,7897 7000,7905 6970,7909 6941,7918 6907,7918 6878,7926 6840,7930 6811,7934 6773,7939 6736,7943 6698,7947 6660,7951 6618,7951 6576,7951 6534,7951 6492,7955 6446,7951 6400,7951 6354,7951 6308,7951 6258,7947 6212,7939 6157,7934 6107,7930 6052,7922 6002,7918 5948,7909 5893,7901 5834,7892 5776,7880 5713,7863 5658,7855 5596,7834 5537,7821 5474,7804 5415,7788 5348,7763 5281,7742 5214,7721 5151,7695 5080,7670 5013,7645 4946,7616 4879,7586 4803,7553 4736,7519 4665,7486 4602,7457 4535,7423 4468,7389 4405,7360 4346,7331 4279,7297 4221,7264 4158,7230 4103,7197 4041,7163 3986,7130 3927,7100 3877,7067 3823,7033 3764,6995 3714,6962 3663,6933 3613,6895 3563,6861 3512,6828 3466,6794 3420,6761 3370,6723 3324,6689 3282,6656 3236,6622 3194,6585 3152,6551 3110,6518 3068,6480 3026,6442 2988,6404 2951,6367 2909,6329 2871,6291 2833,6254 2800,6216 2762,6178 2724,6140 2691,6099 2657,6061 2624,6019 2594,5981 2561,5943 2532,5906 2498,5860 2469,5818 2435,5776 2410,5734 2381,5692 2351,5650 2326,5608 2301,5566 2272,5520 2247,5478 2221,5432 2196,5390 2171,5344 2146,5302 2125,5256 2104,5214 2075,5164 2058,5118 2033,5072 2012,5030 1991,4984 1974,4938 1957,4896 1941,4849 1924,4803 1907,4761 1890,4720 1878,4673 1861,4632 1848,4590 1832,4548 1823,4510 1811,4464 1798,4426 1790,4384 1781,4342 1769,4305 1760,4267 1752,4225 1748,4191 1739,4154 1731,4116 1723,4078 1718,4045 1714,4007 1710,3973 1706,3940 1706,3911 1702,3873 1698,3839 1693,3806 1693,3776 1689,3747 1689,3718 1689,3688 1689,3663 1685,3634 1685,3605 1685,3579 1685,3554 1685,3529 1689,3504 1693,3483 1693,3462 1693,3437 1693,3416 1698,3395 1702,3378 1702,3357 1702,3341 1706,3324 1710,3307 1718,3278 1723,3253 1731,3232 1739,3219 1735,3219 1731,3223 1718,3232 1714,3248 1702,3269 1689,3299 1681,3307 1677,3324 1672,3345 1664,3362 1656,3382 1651,3403 1647,3424 1639,3450 1630,3475 1626,3500 1618,3529 1618,3559 1609,3588 1609,3621 1605,3638 1601,3655 1601,3672 1601,3693 1597,3709 1597,3726 1597,3747 1597,3768 1597,3785 1597,3806 1597,3827 1597,3852 1597,3869 1597,3894 1597,3919 1597,3948 1597,3973 1605,4007 1609,4041 1618,4078 1618,4112 1626,4145 1630,4183 1639,4229 1647,4271 1656,4313 1668,4359 1681,4409 1689,4451 1702,4502 1714,4548 1731,4598 1744,4652 1760,4703 1777,4757 1794,4812 1815,4866 1832,4921 1853,4975 1874,5038 1899,5093 1920,5151 1945,5210 1974,5273 1995,5331 2020,5386 2050,5449 2079,5508 2108,5570 2142,5629 2171,5692 2209,5755 2238,5809 2272,5872 2309,5931 2351,5994 2389,6052 2431,6111 2473,6174 2519,6233 2557,6291 2603,6350 2649,6404 2695,6467 2741,6522 2791,6576 2846,6631 2900,6689 2951,6744 3005,6794 3060,6845 3118,6903 3177,6949 3240,7000 3299,7050 3366,7100 3429,7142 3487,7184 3550,7230 3609,7272 3667,7310 3726,7352 3785,7389 3839,7427 3894,7465 3948,7498 3999,7532 4057,7570 4108,7599 4158,7633 4212,7666 4263,7695 4309,7721 4359,7750 4409,7779 4460,7804 4506,7825 4552,7855 4598,7876 4644,7901 4690,7922 4736,7943 4778,7964 4824,7985 4870,8006 4912,8022 4954,8039 5005,8060 5042,8068 5088,8085 5126,8098 5172,8115 5210,8127 5256,8136 5294,8148 5340,8165 5378,8173 5419,8182 5461,8190 5508,8203 5545,8211 5587,8219 5629,8228 5675,8236 5713,8240 5755,8245 5797,8249 5839,8257 5885,8257 5927,8265 5969,8265 6015,8274 6057,8274 6098,8278 6145,8278 6191,8282 6233,8282 6279,8286 6325,8286 6375,8291 6417,8286 6463,8286 6509,8286 6551,8286 6593,8286 6635,8286 6673,8286 6715,8286 6748,8282 6786,8278 6819,8278 6857,8274 6891,8270 6924,8265 6958,8265 6991,8265 7021,8257 7050,8253 7075,8249 7104,8245 7130,8240 7159,8236 7184,8228 7213,8228 7234,8219 7255,8215 7280,8211 7301,8207 7322,8198 7343,8194 7364,8186 7385,8182 7398,8173 7415,8169 7431,8161 7448,8152 7461,8144 7477,8140 7490,8131 7507,8127 7524,8110 7549,8098 7565,8081 7586,8068 7599,8052 7612,8031 7620,8014 7633,8001 7637,7985 7641,7968 7645,7947 7645,7934 7645,7918 7641,7901 7637,7884 7628,7876 7612,7855 7595,7838 7565,7825 7540,7817 7511,7804 7482,7804 7448,7800 7423,7800 7394,7804 7368,7804 7348,7804 7331,7809 7318,7813 "/>
    <polygon class="fil9" points="6794,3286 6794,3282 6803,3274 6807,3261 6819,3244 6832,3219 6849,3194 6857,3177 6866,3165 6878,3148 6886,3131 6895,3110 6903,3089 6916,3072 6928,3051 6937,3026 6949,3005 6962,2980 6974,2959 6983,2934 6995,2909 7008,2884 7016,2859 7029,2829 7042,2804 7050,2779 7067,2750 7075,2720 7083,2691 7092,2662 7100,2632 7104,2603 7113,2574 7121,2544 7130,2515 7138,2481 7142,2452 7151,2418 7155,2389 7159,2356 7159,2326 7163,2297 7167,2268 7163,2234 7163,2205 7159,2175 7159,2146 7155,2112 7151,2083 7142,2054 7138,2029 7130,1999 7121,1970 7109,1941 7100,1915 7083,1886 7071,1861 7054,1836 7037,1811 7016,1786 6995,1760 6974,1735 6954,1714 6933,1698 6907,1677 6886,1660 6866,1643 6840,1626 6811,1614 6786,1597 6765,1589 6736,1576 6710,1563 6685,1555 6660,1551 6631,1542 6601,1534 6572,1526 6547,1526 6513,1521 6488,1517 6455,1517 6430,1517 6400,1517 6371,1517 6337,1517 6308,1526 6279,1526 6249,1530 6216,1538 6187,1547 6153,1551 6124,1555 6090,1563 6061,1576 6031,1584 6002,1593 5969,1601 5939,1618 5910,1626 5881,1639 5847,1651 5818,1668 5788,1681 5759,1698 5734,1714 5704,1735 5675,1748 5650,1765 5621,1781 5591,1802 5566,1819 5541,1840 5516,1857 5491,1878 5461,1895 5436,1920 5415,1941 5394,1962 5369,1983 5348,2008 5327,2029 5311,2054 5285,2075 5264,2100 5243,2121 5227,2150 5202,2171 5181,2196 5160,2217 5143,2242 5118,2268 5097,2293 5076,2318 5055,2347 5030,2372 5013,2398 4988,2423 4967,2452 4946,2477 4921,2502 4900,2527 4879,2553 4854,2582 4833,2607 4803,2632 4787,2657 4757,2687 4736,2712 4711,2737 4690,2762 4665,2787 4640,2817 4619,2842 4594,2867 4564,2892 4539,2913 4514,2938 4489,2963 4460,2988 4434,3014 4409,3035 4384,3064 4355,3081 4326,3106 4296,3127 4267,3152 4238,3173 4208,3194 4179,3215 4154,3240 4120,3257 4091,3278 4057,3299 4028,3315 3994,3336 3965,3353 3932,3370 3902,3391 3869,3403 3835,3420 3802,3437 3768,3454 3735,3466 3697,3483 3663,3496 3630,3512 3592,3521 3554,3533 3521,3542 3487,3550 3454,3559 3420,3567 3387,3575 3357,3584 3324,3588 3294,3592 3265,3596 3240,3605 3206,3605 3181,3609 3156,3609 3127,3617 3097,3617 3072,3617 3047,3617 3026,3617 2997,3613 2976,3609 2955,3609 2934,3609 2909,3600 2888,3596 2863,3596 2846,3592 2825,3588 2808,3584 2791,3579 2775,3575 2754,3567 2737,3559 2720,3550 2703,3546 2687,3538 2666,3533 2653,3521 2641,3517 2624,3508 2611,3500 2594,3491 2582,3483 2557,3466 2536,3450 2506,3429 2490,3412 2469,3391 2452,3374 2431,3357 2414,3341 2397,3324 2385,3307 2368,3290 2356,3274 2339,3261 2326,3248 2309,3236 2293,3223 2276,3215 2263,3206 2247,3194 2230,3185 2213,3181 2196,3173 2171,3165 2142,3156 2112,3148 2087,3139 2066,3135 2050,3135 2029,3135 2020,3135 2012,3135 2024,3148 2029,3156 2041,3165 2050,3173 2058,3194 2066,3202 2083,3223 2096,3240 2112,3257 2125,3274 2142,3294 2163,3315 2180,3336 2196,3353 2213,3378 2230,3399 2251,3420 2268,3441 2288,3466 2309,3487 2330,3512 2347,3533 2364,3550 2381,3571 2402,3592 2418,3609 2435,3630 2452,3647 2473,3663 2485,3676 2502,3693 2519,3705 2544,3722 2565,3730 2590,3743 2615,3756 2645,3768 2670,3776 2703,3785 2716,3789 2733,3797 2750,3797 2766,3806 2783,3806 2800,3810 2817,3814 2838,3818 2854,3823 2871,3823 2892,3827 2913,3835 2930,3835 2947,3835 2968,3835 2988,3839 3005,3839 3026,3844 3043,3844 3064,3848 3081,3848 3106,3848 3123,3848 3144,3848 3164,3848 3190,3848 3211,3848 3232,3848 3253,3844 3278,3844 3294,3844 3320,3844 3341,3839 3362,3835 3382,3835 3408,3835 3429,3827 3450,3827 3475,3823 3496,3823 3517,3814 3542,3814 3563,3810 3588,3806 3609,3797 3634,3793 3651,3785 3680,3781 3701,3772 3726,3768 3747,3760 3772,3756 3797,3743 3823,3735 3848,3726 3877,3718 3902,3705 3927,3697 3952,3688 3982,3680 4007,3663 4032,3655 4057,3642 4082,3634 4112,3617 4141,3609 4166,3596 4196,3584 4225,3571 4250,3554 4279,3542 4309,3525 4338,3512 4363,3496 4393,3483 4422,3466 4451,3450 4476,3433 4506,3416 4535,3399 4560,3382 4590,3362 4619,3345 4644,3332 4673,3311 4703,3290 4728,3269 4757,3253 4782,3232 4812,3215 4841,3194 4870,3177 4896,3156 4921,3135 4946,3110 4975,3089 5005,3068 5030,3047 5055,3026 5084,3005 5109,2980 5134,2959 5160,2934 5189,2913 5210,2888 5235,2863 5264,2842 5290,2817 5311,2791 5331,2766 5357,2741 5378,2724 5399,2695 5424,2678 5445,2653 5470,2636 5491,2615 5508,2594 5528,2574 5554,2557 5570,2540 5591,2523 5612,2506 5633,2490 5650,2473 5671,2456 5688,2439 5709,2423 5725,2406 5742,2393 5759,2381 5780,2368 5797,2356 5818,2343 5834,2326 5851,2318 5868,2305 5885,2293 5902,2284 5922,2276 5935,2263 5948,2251 5969,2242 5985,2234 5998,2226 6015,2217 6031,2209 6048,2205 6061,2196 6082,2188 6094,2180 6111,2175 6128,2167 6145,2167 6161,2159 6178,2159 6191,2150 6212,2146 6224,2142 6241,2138 6258,2133 6275,2129 6291,2129 6308,2129 6325,2121 6342,2121 6358,2117 6375,2117 6392,2117 6409,2117 6425,2117 6446,2117 6463,2112 6480,2112 6492,2112 6513,2112 6539,2117 6568,2121 6597,2121 6622,2129 6643,2138 6664,2146 6681,2150 6698,2159 6715,2171 6731,2188 6744,2196 6757,2209 6769,2226 6782,2242 6786,2259 6794,2276 6803,2293 6807,2314 6811,2335 6811,2356 6815,2377 6819,2402 6819,2427 6819,2452 6819,2477 6824,2506 6824,2536 6824,2565 6824,2578 6824,2590 6824,2611 6824,2628 6819,2657 6819,2687 6815,2716 6811,2750 6811,2762 6807,2779 6803,2796 6803,2812 6798,2825 6794,2846 6794,2863 6794,2880 6782,2909 6778,2938 6773,2955 6773,2972 6765,2988 6765,3005 6757,3035 6752,3064 6744,3093 6736,3127 6727,3152 6719,3177 6710,3202 6702,3232 6694,3257 6689,3278 6681,3303 6677,3324 6669,3345 6660,3362 6656,3382 6652,3399 6643,3429 6643,3450 6635,3466 6635,3483 6631,3504 6631,3521 6627,3542 6627,3559 6627,3579 6627,3596 6627,3621 6631,3642 6631,3651 6635,3647 6635,3630 6639,3617 6643,3592 6656,3571 6669,3542 6681,3512 6689,3496 6698,3479 6706,3466 6715,3450 6719,3433 6727,3416 6736,3399 6744,3387 6757,3362 6769,3336 6778,3315 6786,3299 "/>
    <polygon class="fil3" points="2947,8345 2955,8354 2968,8362 2984,8379 3005,8395 3014,8404 3026,8412 3039,8425 3051,8437 3064,8450 3081,8467 3093,8479 3110,8496 3123,8513 3135,8530 3152,8546 3169,8563 3181,8580 3198,8605 3211,8626 3232,8651 3244,8672 3257,8701 3273,8727 3286,8756 3294,8768 3303,8781 3307,8794 3315,8815 3324,8827 3332,8840 3341,8861 3349,8877 3362,8907 3374,8936 3387,8965 3403,8991 3420,9012 3437,9033 3454,9053 3470,9079 3483,9091 3504,9108 3521,9125 3538,9137 3550,9150 3567,9162 3584,9171 3600,9183 3613,9188 3626,9200 3638,9204 3651,9213 3672,9225 3693,9238 3701,9246 3709,9259 3709,9276 3709,9292 3688,9301 3672,9313 3651,9313 3638,9318 3621,9318 3605,9322 3584,9318 3563,9318 3542,9313 3521,9313 3496,9309 3475,9305 3450,9301 3429,9301 3399,9292 3374,9284 3349,9276 3324,9271 3294,9259 3269,9250 3244,9238 3219,9230 3194,9217 3173,9204 3148,9188 3127,9179 3110,9162 3089,9150 3072,9133 3056,9121 3039,9104 3022,9087 3005,9066 2993,9049 2976,9033 2963,9016 2951,8999 2938,8982 2921,8965 2909,8949 2892,8936 2884,8919 2871,8903 2859,8890 2846,8877 2838,8869 2817,8844 2796,8827 2771,8815 2754,8810 2733,8806 2716,8815 2695,8831 2678,8852 2657,8873 2641,8894 2628,8907 2620,8928 2607,8944 2603,8970 2594,8986 2582,9012 2574,9028 2565,9049 2557,9066 2544,9095 2523,9121 2506,9141 2485,9162 2465,9183 2444,9200 2423,9209 2402,9217 2385,9230 2364,9230 2347,9234 2330,9230 2322,9225 2309,9217 2305,9209 2305,9192 2309,9179 2314,9154 2322,9137 2330,9121 2339,9104 2347,9087 2360,9070 2368,9053 2381,9037 2385,9012 2393,8991 2397,8965 2402,8940 2402,8924 2402,8907 2402,8890 2406,8873 2402,8852 2402,8831 2397,8815 2397,8794 2393,8768 2389,8739 2389,8714 2389,8693 2389,8664 2393,8643 2397,8618 2402,8592 2406,8567 2410,8542 2414,8513 2423,8492 2435,8467 2444,8446 2452,8421 2460,8400 2473,8379 2481,8358 2490,8337 2502,8320 2511,8303 2523,8286 2536,8270 2548,8257 2574,8236 2594,8219 2620,8211 2645,8215 2662,8219 2687,8224 2712,8232 2737,8245 2762,8253 2787,8265 2808,8274 2838,8286 2854,8295 2875,8307 2892,8316 2913,8324 2921,8333 2934,8341 2938,8341 "/>
    <polygon class="fil2" points="4686,1593 4694,1563 4703,1538 4711,1513 4724,1488 4728,1459 4740,1433 4749,1404 4757,1375 4757,1341 4766,1312 4770,1283 4778,1253 4778,1236 4778,1216 4778,1203 4782,1190 4782,1169 4782,1153 4782,1140 4787,1123 4782,1107 4782,1090 4778,1073 4778,1056 4778,1039 4774,1023 4770,1006 4770,989 4766,972 4761,956 4757,939 4753,926 4749,905 4745,893 4740,876 4736,859 4728,842 4720,826 4715,809 4711,792 4703,775 4694,763 4682,746 4673,729 4665,713 4657,700 4644,683 4636,671 4619,654 4606,637 4598,625 4585,612 4569,595 4552,578 4539,557 4523,549 4506,532 4493,520 4476,503 4468,495 4451,478 4439,465 4422,457 4409,444 4393,436 4380,428 4363,419 4355,407 4338,398 4326,390 4309,381 4296,373 4267,360 4242,352 4212,340 4187,331 4158,323 4133,314 4103,306 4078,306 4053,298 4028,293 3999,293 3973,293 3944,293 3919,293 3890,293 3864,293 3835,298 3810,306 3781,306 3755,314 3726,314 3697,323 3659,327 3626,335 3592,344 3558,352 3525,360 3491,373 3458,386 3429,398 3399,411 3370,428 3336,440 3311,457 3282,474 3257,490 3232,507 3202,528 3177,545 3152,562 3127,583 3102,608 3076,625 3056,650 3035,671 3014,700 2993,721 2972,746 2955,771 2938,796 2921,822 2900,851 2888,876 2875,905 2859,930 2846,956 2833,985 2821,1014 2808,1039 2800,1069 2791,1098 2783,1132 2775,1157 2766,1190 2762,1216 2758,1249 2754,1278 2750,1312 2750,1341 2750,1375 2745,1404 2745,1438 2750,1467 2754,1501 2754,1530 2758,1563 2762,1593 2771,1630 2779,1660 2783,1689 2791,1723 2804,1752 2812,1781 2825,1819 2838,1848 2854,1882 2867,1911 2884,1941 2900,1966 2917,1995 2934,2016 2951,2045 2968,2066 2988,2092 3005,2112 3026,2129 3047,2150 3068,2167 3089,2184 3110,2200 3131,2213 3156,2230 3173,2242 3198,2251 3219,2263 3244,2272 3269,2280 3290,2289 3315,2297 3341,2305 3362,2309 3387,2309 3408,2314 3437,2318 3458,2322 3483,2326 3508,2326 3533,2326 3558,2326 3579,2326 3605,2322 3630,2322 3651,2318 3676,2314 3697,2309 3726,2309 3747,2301 3768,2297 3793,2289 3814,2289 3835,2280 3860,2272 3881,2268 3906,2263 3923,2251 3944,2242 3961,2234 3982,2226 3999,2217 4020,2209 4041,2200 4061,2192 4074,2180 4091,2171 4112,2163 4129,2154 4141,2146 4158,2138 4170,2129 4187,2121 4208,2100 4233,2079 4254,2062 4279,2045 4300,2029 4317,2012 4338,1999 4363,1987 4380,1970 4397,1953 4414,1941 4430,1928 4447,1911 4464,1899 4476,1886 4497,1874 4506,1857 4523,1840 4535,1827 4548,1811 4560,1794 4573,1781 4585,1765 4598,1748 4606,1727 4619,1710 4632,1693 4644,1677 4652,1651 4665,1630 4673,1614 "/>
    <polygon class="fil4" points="3919,1970 3936,1953 3952,1932 3973,1915 3990,1895 4007,1878 4024,1857 4041,1840 4057,1819 4070,1802 4082,1781 4099,1760 4112,1744 4124,1723 4137,1702 4149,1681 4162,1664 4170,1639 4179,1622 4187,1601 4200,1584 4204,1559 4212,1538 4225,1517 4233,1501 4233,1480 4242,1463 4246,1442 4250,1425 4254,1404 4258,1383 4263,1362 4267,1345 4267,1324 4267,1304 4267,1283 4267,1266 4263,1245 4263,1228 4263,1207 4263,1190 4258,1169 4254,1153 4250,1136 4246,1119 4242,1102 4233,1086 4229,1069 4225,1056 4217,1039 4208,1019 4200,1006 4191,989 4179,972 4170,964 4162,947 4154,935 4141,918 4129,905 4112,893 4103,884 4087,872 4074,859 4057,851 4045,842 4028,830 4007,822 3990,813 3973,809 3952,801 3936,792 3915,788 3898,788 3873,784 3852,780 3831,775 3810,775 3785,775 3764,775 3735,775 3718,780 3688,780 3667,784 3642,784 3617,792 3592,792 3567,801 3546,809 3521,817 3496,822 3470,830 3445,842 3424,851 3399,859 3382,872 3357,884 3336,897 3311,905 3290,922 3269,935 3248,951 3227,964 3211,981 3194,1002 3173,1019 3156,1035 3139,1052 3123,1069 3110,1090 3093,1107 3081,1132 3072,1153 3060,1178 3051,1199 3043,1220 3035,1245 3026,1270 3018,1291 3014,1320 3014,1345 3014,1371 3014,1396 3014,1425 3014,1450 3022,1484 3026,1509 3035,1542 3043,1572 3056,1605 3064,1635 3076,1664 3089,1689 3097,1718 3110,1744 3127,1769 3135,1790 3156,1815 3164,1832 3181,1853 3194,1869 3211,1890 3223,1903 3240,1924 3257,1936 3273,1953 3286,1966 3303,1978 3315,1987 3332,1999 3353,2008 3370,2016 3387,2024 3403,2033 3420,2037 3437,2041 3454,2045 3470,2054 3483,2054 3504,2058 3521,2062 3538,2066 3567,2066 3596,2066 3613,2066 3630,2066 3642,2066 3659,2066 3688,2058 3718,2054 3747,2045 3772,2041 3793,2033 3818,2024 3839,2016 3860,2008 3877,1995 3894,1987 3906,1978 "/>
    <polygon class="fil5" points="4275,1329 4271,1337 4271,1350 4263,1366 4258,1387 4246,1413 4238,1442 4229,1454 4221,1471 4212,1488 4204,1509 4196,1521 4183,1538 4170,1555 4158,1576 4145,1593 4129,1610 4116,1626 4103,1643 4082,1660 4066,1677 4045,1693 4028,1710 4007,1727 3982,1744 3961,1760 3940,1777 3911,1790 3885,1802 3856,1815 3827,1827 3793,1840 3764,1853 3735,1861 3705,1874 3688,1878 3672,1878 3651,1882 3638,1886 3605,1886 3575,1895 3558,1895 3542,1895 3529,1895 3512,1895 3483,1886 3454,1886 3424,1874 3395,1861 3370,1848 3345,1832 3328,1819 3315,1811 3303,1798 3290,1786 3278,1773 3269,1760 3257,1744 3248,1731 3240,1710 3232,1693 3219,1677 3211,1660 3202,1635 3194,1614 3190,1593 3185,1572 3177,1547 3173,1517 3169,1492 3169,1467 3164,1438 3160,1408 3160,1375 3160,1350 3156,1312 3156,1283 3160,1249 3164,1224 3164,1195 3173,1169 3181,1144 3190,1123 3198,1094 3206,1077 3219,1056 3232,1039 3240,1019 3257,1002 3269,985 3286,972 3303,956 3315,939 3332,926 3353,918 3370,901 3387,893 3408,884 3429,876 3445,868 3466,859 3483,851 3508,851 3529,842 3550,838 3571,830 3596,830 3613,826 3634,822 3651,817 3676,817 3693,813 3718,813 3735,813 3755,813 3772,813 3793,813 3810,813 3831,813 3848,813 3869,817 3885,822 3902,822 3932,822 3961,826 3982,830 4007,834 4020,834 4036,838 4041,842 4045,842 4041,838 4032,830 4015,817 3994,805 3982,792 3965,784 3948,775 3936,767 3915,754 3894,746 3869,742 3848,738 3823,729 3797,717 3768,713 3743,708 3709,704 3680,704 3663,704 3651,704 3634,704 3617,708 3596,708 3579,708 3563,708 3546,713 3525,713 3508,717 3487,721 3470,729 3450,734 3429,738 3408,746 3391,754 3370,763 3349,771 3328,784 3307,792 3282,805 3261,813 3240,822 3219,834 3202,847 3181,859 3164,872 3148,889 3131,897 3114,914 3097,926 3085,939 3068,956 3056,968 3043,981 3035,1002 3018,1014 3005,1027 2997,1044 2988,1060 2976,1077 2968,1094 2959,1111 2951,1128 2938,1144 2930,1161 2921,1178 2921,1199 2913,1216 2909,1232 2900,1249 2900,1270 2892,1287 2892,1304 2884,1320 2884,1337 2879,1358 2879,1375 2879,1396 2879,1413 2875,1433 2875,1450 2875,1467 2879,1484 2879,1501 2884,1521 2884,1538 2892,1559 2892,1576 2896,1593 2900,1614 2905,1630 2909,1647 2913,1664 2921,1681 2930,1698 2934,1714 2938,1731 2951,1748 2959,1765 2968,1781 2976,1798 2984,1815 2997,1832 3005,1844 3014,1857 3022,1874 3035,1886 3051,1911 3081,1936 3097,1957 3127,1978 3135,1991 3152,1999 3164,2008 3181,2016 3206,2029 3232,2041 3257,2054 3286,2066 3315,2075 3345,2083 3370,2087 3403,2096 3429,2100 3458,2104 3483,2104 3512,2104 3542,2104 3567,2104 3592,2104 3621,2104 3642,2096 3667,2092 3688,2092 3714,2087 3730,2083 3751,2075 3768,2071 3789,2066 3814,2054 3844,2037 3869,2024 3898,2012 3923,1995 3944,1978 3969,1962 3990,1945 4011,1924 4032,1903 4053,1878 4074,1857 4091,1832 4112,1807 4120,1790 4129,1777 4137,1765 4149,1752 4154,1735 4162,1714 4166,1698 4179,1685 4183,1668 4191,1651 4196,1630 4204,1614 4208,1597 4212,1580 4221,1563 4225,1547 4229,1526 4233,1509 4242,1492 4246,1480 4246,1463 4250,1442 4250,1429 4258,1417 4263,1392 4267,1371 4271,1350 4271,1337 4271,1329 "/>
    <polygon class="fil10" points="3106,1010 3114,998 3131,985 3148,972 3169,960 3185,943 3211,935 3236,922 3265,914 3290,905 3320,897 3332,893 3349,893 3366,893 3382,893 3399,893 3420,893 3437,897 3454,905 3470,905 3491,914 3512,922 3529,935 3550,943 3567,951 3584,960 3600,972 3613,981 3634,998 3647,1010 3663,1023 3676,1035 3688,1048 3697,1065 3714,1086 3722,1098 3735,1115 3743,1136 3755,1157 3760,1174 3764,1190 3772,1211 3776,1236 3781,1253 3785,1278 3785,1299 3789,1329 3785,1350 3785,1375 3785,1400 3785,1425 3776,1450 3772,1480 3768,1509 3764,1538 3755,1563 3747,1593 3730,1614 3718,1639 3701,1660 3688,1685 3672,1706 3651,1727 3630,1739 3609,1756 3588,1769 3567,1781 3542,1794 3517,1807 3491,1815 3470,1823 3441,1827 3416,1832 3391,1836 3362,1840 3336,1836 3311,1836 3286,1832 3261,1827 3236,1819 3211,1815 3181,1807 3164,1802 3139,1790 3118,1777 3097,1765 3081,1752 3060,1731 3043,1714 3026,1693 3014,1677 3005,1656 2993,1635 2984,1614 2976,1593 2968,1568 2963,1547 2959,1521 2959,1501 2951,1475 2951,1454 2951,1433 2955,1413 2955,1387 2955,1366 2955,1341 2959,1324 2959,1299 2959,1283 2963,1266 2968,1249 2972,1232 2976,1216 2976,1199 2984,1190 2993,1169 3001,1161 3014,1132 3026,1111 3043,1086 3064,1060 3076,1039 3089,1023 3097,1010 "/>
    <polygon class="fil11" points="3156,1656 3131,1651 3110,1643 3089,1635 3072,1630 3051,1618 3035,1610 3022,1593 3009,1580 2997,1555 2984,1538 2976,1509 2968,1484 2963,1467 2959,1450 2959,1433 2959,1421 2955,1400 2955,1383 2955,1362 2959,1341 2959,1316 2959,1295 2959,1274 2963,1253 2968,1236 2972,1216 2976,1199 2984,1182 2988,1165 2997,1148 3005,1132 3014,1115 3030,1090 3051,1065 3068,1039 3089,1023 3114,1006 3139,998 3164,985 3194,981 3219,981 3248,989 3273,989 3299,1002 3320,1014 3345,1031 3362,1048 3378,1073 3391,1094 3403,1123 3412,1153 3420,1178 3420,1195 3429,1207 3429,1228 3433,1245 3433,1257 3433,1274 3433,1291 3437,1308 3437,1320 3437,1337 3437,1358 3437,1375 3429,1404 3420,1433 3408,1463 3399,1492 3382,1517 3370,1542 3353,1563 3332,1584 3311,1601 3290,1618 3269,1630 3248,1639 3219,1647 3202,1651 3177,1651 "/>
    <polygon class="fil12" points="3705,1081 3718,1086 3735,1102 3743,1115 3755,1132 3764,1148 3772,1169 3781,1190 3789,1211 3793,1236 3802,1262 3802,1287 3806,1312 3802,1341 3802,1375 3793,1396 3785,1421 3768,1438 3755,1450 3735,1459 3718,1467 3697,1467 3680,1467 3659,1459 3642,1450 3621,1438 3605,1425 3588,1404 3575,1383 3567,1358 3558,1337 3550,1308 3550,1278 3550,1253 3550,1228 3554,1203 3558,1182 3567,1165 3579,1148 3588,1128 3605,1115 3613,1102 3634,1094 3647,1086 3663,1077 3684,1077 "/>
    <polygon class="fil4" points="3102,1123 3110,1128 3123,1140 3131,1157 3139,1178 3144,1203 3144,1232 3144,1245 3144,1257 3139,1274 3139,1291 3127,1320 3118,1341 3097,1358 3085,1366 3068,1366 3051,1362 3039,1350 3030,1329 3018,1299 3014,1274 3009,1249 3009,1228 3009,1203 3014,1186 3026,1169 3035,1157 3043,1140 3051,1132 3060,1123 3072,1123 3089,1115 "/>
    <polygon class="fil10" points="5520,759 5516,750 5508,729 5503,708 5499,696 5491,679 5487,662 5474,637 5466,620 5453,599 5440,583 5424,562 5407,549 5382,532 5361,524 5336,511 5311,511 5290,507 5273,511 5252,511 5235,520 5218,528 5206,541 5189,549 5176,562 5164,574 5155,591 5147,608 5143,620 5134,633 5134,654 5130,679 5134,708 5143,738 5151,767 5160,792 5172,813 5181,826 5189,830 5197,830 5218,826 5243,822 5269,813 5281,809 5294,805 5311,801 5331,796 5344,792 5361,788 5378,784 5390,780 5403,775 5424,771 5445,767 5466,767 5482,759 5499,759 5512,759 "/>
    <polygon class="fil11" points="5361,784 5357,775 5352,754 5340,729 5331,700 5319,679 5311,666 5298,650 5285,637 5273,625 5260,616 5243,608 5227,604 5210,595 5193,599 5176,599 5168,608 5147,625 5134,650 5122,671 5122,700 5118,729 5126,754 5130,775 5139,796 5147,813 5155,830 5160,842 5172,855 5172,859 5176,863 5273,817 "/>
    <polygon class="fil4" points="5168,671 5189,675 5210,696 5218,708 5222,729 5227,746 5227,771 5218,788 5214,796 5202,796 5193,796 5181,788 5172,775 5164,763 5160,746 5155,729 5151,713 5151,700 5151,692 5151,679 "/>
    <polygon class="fil7" points="6916,1102 6907,1098 6895,1094 6882,1086 6874,1077 6857,1069 6849,1065 6828,1052 6811,1044 6790,1031 6769,1023 6744,1010 6727,998 6698,985 6677,972 6648,960 6618,943 6589,930 6560,918 6530,905 6501,893 6467,880 6438,868 6421,859 6404,851 6388,847 6371,842 6354,830 6337,826 6321,822 6304,817 6287,809 6270,805 6254,801 6241,796 6220,792 6207,788 6191,784 6174,784 6157,775 6136,775 6119,767 6103,767 6086,759 6069,754 6052,754 6036,754 6015,746 5998,746 5977,742 5960,742 5939,738 5922,738 5902,738 5885,738 5864,734 5847,734 5826,729 5809,729 5788,729 5767,729 5751,729 5734,729 5713,729 5692,729 5671,729 5654,734 5633,734 5612,738 5596,738 5579,742 5558,742 5537,742 5520,746 5499,746 5482,746 5461,750 5445,754 5424,759 5407,759 5386,767 5369,767 5348,775 5331,775 5315,784 5298,784 5281,792 5260,796 5243,805 5227,809 5210,813 5189,822 5172,826 5160,834 5143,842 5126,851 5109,859 5097,863 5080,872 5063,880 5051,889 5038,897 5025,910 5025,918 5030,943 5030,956 5030,981 5030,1002 5030,1035 5030,1048 5030,1065 5025,1081 5025,1098 5021,1115 5021,1132 5017,1153 5013,1178 5009,1195 5005,1216 4996,1236 4992,1266 4984,1287 4979,1312 4971,1337 4967,1362 4954,1383 4942,1404 4929,1429 4921,1450 4908,1471 4900,1492 4887,1513 4879,1534 4866,1547 4854,1563 4845,1584 4837,1601 4824,1614 4816,1630 4808,1643 4803,1660 4787,1677 4770,1698 4757,1714 4753,1731 4749,1748 4766,1752 4782,1744 4803,1727 4816,1714 4837,1702 4854,1689 4879,1672 4900,1651 4921,1630 4933,1618 4946,1610 4958,1597 4975,1589 4988,1576 5005,1563 5021,1551 5038,1538 5051,1526 5067,1517 5088,1501 5105,1492 5126,1480 5143,1463 5160,1450 5181,1438 5197,1425 5218,1413 5235,1396 5260,1387 5277,1371 5302,1358 5319,1345 5344,1337 5369,1320 5390,1312 5415,1299 5440,1291 5461,1274 5487,1266 5508,1253 5537,1245 5562,1232 5587,1224 5612,1216 5642,1207 5667,1199 5692,1190 5721,1178 5751,1169 5776,1161 5805,1157 5834,1153 5864,1148 5893,1140 5922,1136 5948,1132 5977,1128 6002,1123 6031,1119 6061,1115 6090,1115 6115,1111 6140,1107 6166,1102 6191,1102 6220,1102 6245,1102 6270,1102 6295,1102 6321,1102 6342,1102 6367,1102 6392,1102 6417,1102 6438,1102 6463,1107 6484,1111 6505,1111 6530,1111 6551,1115 6572,1115 6593,1119 6614,1123 6635,1128 6660,1132 6677,1132 6698,1140 6715,1140 6736,1144 6752,1148 6769,1153 6786,1157 6807,1161 6836,1169 6870,1178 6895,1190 6928,1199 6954,1207 6979,1220 7000,1232 7021,1245 7037,1253 7058,1266 7075,1274 7092,1287 7083,1278 7075,1266 7063,1249 7054,1236 7042,1224 7029,1211 7016,1195 7000,1178 6987,1161 6970,1153 6954,1132 6941,1123 6924,1115 "/>
    <polygon class="fil13" points="889,8270 901,8265 918,8265 935,8265 951,8265 972,8261 989,8257 1006,8257 1023,8257 1035,8249 1056,8245 1069,8240 1086,8236 1102,8228 1119,8224 1136,8219 1153,8215 1165,8207 1182,8198 1195,8190 1211,8182 1224,8173 1241,8165 1253,8157 1270,8148 1295,8127 1320,8106 1345,8089 1375,8068 1392,8043 1413,8014 1433,7989 1454,7964 1463,7947 1471,7934 1480,7918 1488,7905 1496,7888 1505,7876 1513,7859 1521,7846 1526,7830 1530,7813 1534,7796 1542,7779 1542,7763 1551,7750 1555,7729 1559,7716 1559,7700 1563,7683 1568,7666 1572,7645 1572,7628 1572,7612 1572,7595 1576,7578 1572,7561 1572,7540 1572,7524 1572,7507 1568,7490 1563,7473 1559,7457 1559,7440 1555,7419 1551,7402 1542,7385 1542,7373 1530,7339 1521,7310 1513,7293 1505,7276 1496,7260 1488,7247 1480,7230 1471,7218 1463,7205 1454,7192 1442,7176 1433,7163 1421,7146 1413,7138 1392,7113 1375,7092 1358,7075 1345,7063 1333,7054 1320,7042 1295,7021 1270,7004 1253,6995 1241,6987 1224,6979 1211,6970 1182,6954 1153,6941 1136,6933 1119,6928 1102,6920 1086,6916 1069,6912 1056,6907 1035,6903 1023,6903 1006,6895 989,6895 972,6891 951,6891 935,6891 918,6891 901,6891 889,6891 859,6891 838,6891 838,6912 838,6945 838,6958 838,6979 838,6995 838,7012 838,7025 838,7042 838,7063 838,7079 838,7096 838,7113 838,7130 838,7146 859,7146 876,7146 897,7146 918,7146 939,7146 960,7151 981,7155 1002,7159 1023,7167 1044,7176 1060,7184 1077,7192 1094,7205 1115,7213 1127,7222 1148,7239 1165,7251 1182,7268 1195,7280 1203,7297 1215,7314 1232,7331 1241,7348 1253,7364 1262,7385 1274,7406 1278,7423 1287,7444 1291,7465 1299,7486 1299,7507 1304,7532 1308,7553 1308,7578 1308,7599 1304,7616 1299,7637 1299,7662 1291,7679 1287,7700 1278,7721 1274,7742 1262,7758 1253,7775 1241,7792 1232,7813 1215,7825 1203,7842 1195,7863 1182,7880 1165,7892 1148,7901 1127,7913 1115,7930 1094,7939 1077,7951 1060,7959 1044,7972 1023,7976 1002,7985 981,7989 960,7993 939,7997 918,8001 897,8006 876,8006 851,8006 830,8001 809,7997 788,7993 763,7989 746,7985 725,7976 708,7972 687,7959 666,7951 650,7939 633,7930 612,7913 595,7901 583,7892 570,7880 553,7863 541,7842 524,7825 516,7813 503,7792 495,7775 482,7758 478,7742 469,7721 461,7700 457,7679 453,7662 448,7637 444,7616 444,7599 444,7578 444,7553 444,7532 444,7515 453,7494 453,7477 457,7457 465,7440 474,7423 478,7406 482,7389 495,7373 503,7356 511,7335 520,7322 532,7306 549,7297 557,7280 570,7268 583,7251 599,7243 612,7230 629,7218 645,7209 662,7201 679,7192 696,7184 713,7176 729,7167 746,7159 763,7155 784,7151 805,7151 805,7134 805,7117 805,7100 805,7083 805,7067 805,7050 805,7033 805,7016 805,6995 805,6979 805,6962 805,6949 805,6916 805,6895 788,6895 771,6895 754,6895 738,6899 708,6907 679,6916 645,6924 616,6937 591,6949 566,6966 536,6979 511,6995 482,7012 457,7033 432,7050 411,7071 390,7092 373,7117 348,7138 327,7163 310,7188 298,7213 277,7243 264,7268 247,7297 239,7327 226,7356 218,7385 210,7402 210,7415 201,7431 201,7448 197,7477 193,7511 193,7528 193,7545 193,7561 193,7578 193,7595 193,7612 193,7628 193,7645 193,7666 197,7683 201,7700 205,7716 205,7729 210,7750 214,7763 222,7779 226,7796 231,7813 239,7830 247,7846 260,7876 272,7905 281,7918 289,7934 298,7947 310,7964 327,7989 352,8014 360,8027 373,8043 381,8052 398,8068 419,8089 444,8106 469,8127 495,8148 507,8157 520,8165 536,8173 553,8182 566,8190 583,8198 595,8207 612,8215 641,8224 675,8236 692,8240 708,8245 725,8249 746,8257 763,8257 780,8257 796,8261 813,8265 830,8265 851,8265 868,8265 "/>
    <polygon class="fil13" points="1622,8982 1639,8978 1664,8978 1681,8974 1702,8974 1718,8965 1739,8961 1756,8953 1777,8944 1794,8936 1815,8928 1832,8915 1848,8907 1861,8894 1882,8882 1894,8869 1911,8861 1924,8840 1936,8827 1945,8810 1962,8794 1970,8777 1978,8760 1987,8743 1999,8727 2003,8706 2012,8689 2020,8668 2024,8651 2029,8626 2029,8609 2029,8588 2033,8567 2029,8546 2029,8525 2029,8504 2024,8483 2020,8462 2012,8442 2003,8425 1999,8408 1987,8387 1978,8370 1970,8354 1962,8337 1945,8320 1936,8303 1924,8286 1911,8278 1894,8257 1882,8249 1861,8232 1848,8224 1832,8211 1815,8203 1794,8194 1777,8190 1756,8182 1739,8173 1718,8165 1702,8165 1681,8161 1664,8157 1639,8157 1622,8157 1597,8157 1580,8157 1555,8161 1534,8165 1513,8165 1496,8173 1475,8182 1459,8190 1442,8194 1421,8203 1404,8211 1392,8224 1375,8232 1354,8249 1341,8257 1329,8278 1312,8286 1299,8303 1287,8320 1278,8337 1266,8354 1257,8370 1249,8387 1241,8408 1232,8425 1224,8442 1220,8462 1215,8483 1215,8504 1211,8525 1211,8546 1211,8567 1211,8584 1211,8601 1211,8618 1215,8634 1215,8647 1220,8664 1224,8680 1232,8697 1241,8727 1257,8756 1262,8768 1270,8785 1278,8798 1291,8815 1308,8836 1333,8861 1354,8877 1383,8903 1408,8915 1433,8936 1450,8940 1463,8944 1480,8953 1496,8961 1496,8936 1496,8915 1496,8890 1496,8869 1496,8844 1496,8823 1496,8806 1496,8794 1480,8781 1467,8773 1450,8760 1442,8748 1417,8722 1400,8701 1387,8680 1379,8668 1375,8651 1371,8634 1366,8618 1362,8601 1362,8584 1362,8567 1362,8542 1366,8513 1371,8488 1383,8467 1392,8442 1404,8421 1421,8404 1438,8387 1454,8370 1471,8354 1492,8341 1517,8333 1538,8320 1563,8316 1589,8312 1618,8312 1639,8312 1664,8316 1689,8320 1714,8333 1735,8341 1756,8354 1777,8370 1794,8387 1811,8404 1827,8421 1840,8442 1853,8467 1857,8488 1865,8513 1869,8542 1874,8567 1869,8588 1865,8618 1857,8639 1853,8664 1840,8685 1827,8706 1811,8727 1794,8748 1777,8760 1756,8777 1735,8785 1714,8802 1689,8806 1664,8815 1639,8819 1618,8823 1589,8819 1563,8815 1542,8810 1517,8806 1517,8819 1517,8836 1517,8856 1517,8877 1517,8898 1517,8924 1517,8944 1517,8965 1542,8970 1568,8974 1593,8978 "/>
    <polygon class="fil13" points="1484,8785 1534,8806 1534,8815 1534,8831 1534,8856 1534,8890 1534,8915 1534,8944 1534,8961 1534,8970 1521,8965 1505,8961 1488,8953 1484,8953 "/>
    <polygon class="fil13" points="859,6891 859,7146 805,7155 801,6895 805,6895 817,6895 830,6891 838,6891 851,6891 "/>
    <polygon class="fil14" points="381,8454 398,8454 419,8454 436,8450 457,8446 474,8442 495,8437 511,8429 532,8421 549,8408 566,8400 583,8391 599,8383 612,8370 629,8362 641,8349 662,8337 671,8320 683,8303 696,8291 708,8278 717,8257 725,8240 733,8224 746,8211 750,8190 759,8173 763,8152 771,8136 775,8115 775,8094 775,8073 780,8056 775,8031 775,8014 775,7993 771,7976 763,7955 759,7934 750,7918 746,7901 733,7880 725,7863 717,7846 708,7834 696,7817 683,7800 671,7788 662,7775 641,7758 629,7746 612,7729 599,7721 583,7712 566,7704 549,7691 532,7687 511,7679 495,7674 474,7666 457,7666 436,7658 419,7658 398,7658 381,7658 356,7658 331,7658 306,7662 285,7666 260,7674 239,7683 214,7691 197,7704 172,7712 155,7721 134,7733 117,7750 101,7763 88,7779 71,7796 63,7817 71,7825 84,7834 96,7842 117,7855 130,7867 147,7880 163,7892 180,7901 197,7880 218,7863 239,7842 264,7834 289,7817 314,7813 344,7804 377,7804 398,7804 423,7809 444,7817 474,7825 495,7834 511,7846 528,7863 549,7880 566,7897 578,7913 591,7934 604,7955 612,7976 620,8006 625,8031 625,8056 625,8081 620,8102 612,8127 604,8148 591,8169 578,8190 566,8211 549,8228 528,8240 511,8257 495,8265 474,8282 444,8286 423,8295 398,8299 377,8303 352,8299 323,8295 298,8286 277,8282 256,8265 235,8257 218,8240 201,8228 184,8211 168,8190 155,8169 147,8148 134,8127 130,8102 126,8081 126,8056 126,8022 134,7993 143,7968 155,7943 138,7930 126,7918 113,7901 96,7892 80,7876 67,7863 54,7851 46,7842 29,7863 17,7888 4,7913 0,7943 0,7968 0,7993 0,8022 0,8056 0,8073 0,8094 0,8115 0,8136 0,8152 0,8173 4,8190 13,8211 17,8224 25,8240 34,8257 46,8278 54,8291 71,8303 80,8320 96,8337 109,8349 126,8362 138,8370 155,8383 172,8391 189,8400 205,8408 226,8421 243,8429 260,8437 277,8442 298,8446 319,8450 339,8454 360,8454 "/>
    <polygon class="fil14" points="193,7884 147,7955 42,7851 67,7817 "/>
    <polygon class="fil3" points="469,1542 469,1538 474,1530 482,1517 503,1509 511,1501 524,1488 541,1480 557,1471 574,1463 595,1450 612,1442 641,1433 662,1425 687,1413 700,1408 717,1404 733,1400 750,1396 763,1392 784,1387 801,1383 822,1379 838,1375 859,1375 880,1371 905,1371 922,1366 943,1362 964,1358 989,1358 1014,1358 1039,1358 1065,1358 1094,1358 1119,1354 1148,1354 1178,1354 1203,1354 1232,1354 1266,1358 1299,1358 1333,1362 1362,1362 1392,1362 1421,1366 1454,1366 1484,1366 1513,1371 1538,1375 1568,1379 1589,1379 1618,1387 1643,1387 1668,1392 1693,1396 1714,1396 1739,1400 1760,1404 1777,1404 1798,1413 1819,1413 1840,1421 1857,1425 1874,1429 1890,1433 1911,1438 1941,1446 1974,1459 1999,1467 2029,1480 2050,1488 2071,1496 2087,1505 2104,1517 2117,1526 2133,1538 2142,1547 2159,1555 2171,1576 2180,1597 2184,1618 2188,1639 2180,1656 2163,1677 2150,1689 2142,1706 2125,1714 2112,1731 2096,1744 2079,1756 2058,1773 2041,1786 2020,1798 1999,1811 1978,1823 1957,1840 1932,1848 1907,1857 1886,1865 1865,1878 1840,1886 1819,1895 1794,1903 1777,1911 1748,1915 1731,1915 1706,1915 1689,1920 1668,1915 1651,1915 1635,1907 1618,1903 1597,1895 1580,1886 1563,1874 1547,1865 1526,1853 1505,1840 1488,1827 1467,1819 1442,1807 1421,1794 1396,1781 1375,1769 1350,1752 1329,1744 1304,1727 1278,1718 1253,1706 1228,1693 1203,1677 1178,1668 1153,1656 1127,1647 1102,1639 1077,1630 1052,1622 1027,1614 998,1601 977,1601 951,1593 926,1593 905,1589 880,1589 855,1584 830,1584 809,1584 788,1584 767,1584 746,1584 729,1584 713,1584 696,1584 679,1584 662,1584 645,1584 620,1589 595,1593 570,1597 553,1601 536,1601 524,1610 507,1614 503,1618 "/>
    <polygon class="fil13" points="7301,5499 7322,5499 7348,5499 7364,5495 7389,5495 7410,5491 7431,5487 7452,5482 7477,5482 7498,5474 7515,5470 7536,5461 7561,5457 7578,5449 7599,5445 7620,5436 7641,5432 7658,5420 7679,5411 7695,5399 7716,5390 7733,5378 7750,5369 7767,5357 7788,5348 7804,5331 7821,5319 7838,5306 7855,5294 7871,5281 7888,5269 7905,5256 7922,5243 7934,5227 7947,5210 7959,5193 7976,5181 7985,5160 8001,5143 8014,5126 8027,5114 8035,5093 8048,5076 8060,5059 8068,5038 8077,5021 8089,5000 8098,4984 8110,4963 8115,4942 8123,4925 8127,4900 8136,4883 8144,4862 8148,4841 8152,4820 8161,4799 8161,4774 8165,4757 8169,4732 8173,4711 8173,4690 8177,4669 8177,4644 8182,4623 8177,4598 8177,4577 8173,4552 8173,4531 8169,4510 8165,4489 8161,4464 8161,4447 8152,4422 8148,4401 8144,4380 8136,4363 8127,4342 8123,4321 8115,4300 8110,4284 8098,4263 8089,4242 8077,4221 8068,4204 8060,4183 8048,4166 8035,4150 8027,4133 8014,4116 8001,4099 7985,4078 7976,4061 7959,4045 7947,4032 7934,4015 7922,4003 7905,3986 7888,3973 7871,3957 7855,3944 7838,3927 7821,3919 7804,3902 7788,3894 7767,3881 7750,3869 7733,3860 7716,3852 7695,3839 7679,3831 7658,3823 7641,3814 7620,3806 7599,3797 7578,3789 7561,3785 7536,3776 7515,3772 7498,3768 7477,3764 7452,3760 7431,3756 7410,3751 7389,3751 7364,3747 7348,3747 7322,3747 7301,3747 7272,3747 7243,3751 7243,3768 7243,3785 7243,3802 7243,3818 7243,3835 7243,3860 7243,3881 7243,3902 7243,3923 7243,3948 7243,3965 7243,3990 7243,4011 7243,4032 7243,4053 7243,4078 7268,4074 7293,4074 7318,4074 7348,4074 7373,4078 7402,4082 7427,4087 7452,4095 7477,4103 7507,4116 7524,4124 7549,4137 7570,4150 7595,4162 7616,4179 7637,4196 7658,4212 7679,4233 7691,4250 7712,4267 7725,4288 7742,4313 7754,4334 7767,4355 7779,4380 7796,4405 7800,4426 7809,4455 7813,4481 7825,4506 7825,4531 7834,4560 7834,4590 7838,4619 7834,4644 7834,4673 7825,4699 7825,4728 7813,4753 7809,4778 7800,4803 7796,4833 7779,4849 7767,4875 7754,4896 7742,4921 7725,4942 7712,4963 7691,4984 7679,5005 7658,5021 7637,5038 7616,5051 7595,5067 7570,5080 7549,5097 7524,5105 7507,5122 7477,5126 7452,5134 7427,5143 7402,5151 7373,5151 7348,5160 7318,5160 7293,5164 7264,5160 7234,5160 7205,5151 7180,5151 7155,5143 7130,5134 7104,5126 7079,5122 7054,5105 7029,5097 7008,5080 6987,5067 6962,5051 6941,5038 6924,5021 6907,5005 6886,4984 6870,4963 6853,4942 6840,4921 6824,4896 6811,4875 6798,4849 6790,4833 6778,4803 6769,4778 6765,4753 6757,4728 6752,4699 6748,4673 6748,4644 6748,4619 6748,4594 6748,4569 6752,4539 6757,4518 6761,4493 6765,4468 6773,4447 6782,4426 6790,4401 6798,4380 6811,4355 6819,4338 6832,4313 6849,4296 6861,4279 6878,4263 6895,4242 6907,4225 6924,4208 6941,4191 6962,4175 6979,4162 7000,4150 7021,4141 7037,4129 7063,4116 7083,4108 7109,4099 7130,4091 7151,4087 7176,4078 7205,4078 7205,4057 7205,4036 7205,4015 7205,3994 7205,3973 7205,3953 7205,3927 7205,3911 7205,3885 7205,3864 7205,3844 7205,3823 7205,3806 7205,3785 7205,3768 7205,3756 7180,3756 7159,3760 7138,3760 7121,3768 7100,3768 7079,3772 7058,3776 7042,3785 7021,3789 7004,3797 6983,3802 6966,3810 6949,3818 6933,3827 6916,3835 6895,3844 6878,3852 6857,3860 6840,3873 6824,3881 6807,3890 6794,3902 6778,3915 6765,3927 6744,3940 6731,3957 6719,3965 6702,3982 6689,3994 6677,4007 6660,4024 6652,4041 6635,4049 6622,4066 6610,4078 6597,4099 6589,4112 6576,4124 6564,4145 6555,4162 6543,4175 6530,4191 6522,4212 6513,4229 6505,4246 6497,4267 6492,4284 6484,4305 6476,4321 6467,4338 6463,4359 6459,4380 6451,4397 6446,4418 6442,4439 6442,4455 6438,4476 6434,4497 6430,4514 6430,4539 6425,4560 6425,4581 6425,4602 6425,4623 6425,4644 6425,4669 6425,4690 6430,4711 6430,4732 6434,4757 6438,4774 6442,4799 6446,4820 6451,4841 6455,4862 6463,4883 6467,4900 6476,4925 6484,4942 6492,4963 6501,4984 6513,5000 6522,5021 6530,5038 6539,5059 6551,5076 6560,5093 6576,5114 6585,5126 6597,5143 6610,5160 6622,5181 6635,5193 6652,5210 6664,5227 6681,5243 6694,5256 6710,5269 6723,5281 6740,5294 6757,5306 6773,5319 6794,5331 6811,5348 6828,5357 6845,5369 6861,5378 6882,5390 6899,5399 6920,5411 6941,5420 6962,5432 6979,5436 7000,5445 7016,5449 7037,5457 7058,5461 7079,5470 7100,5474 7121,5482 7142,5482 7167,5487 7188,5491 7209,5495 7230,5495 7255,5499 7276,5499 "/>
    <polygon class="fil13" points="8236,6396 8261,6396 8286,6392 8312,6388 8341,6384 8362,6375 8387,6371 8412,6363 8437,6354 8458,6342 8479,6329 8500,6316 8525,6304 8546,6291 8567,6275 8584,6258 8605,6245 8618,6224 8634,6208 8651,6187 8664,6166 8676,6140 8689,6119 8701,6099 8714,6078 8722,6052 8731,6027 8735,6002 8743,5981 8747,5952 8752,5927 8752,5902 8756,5876 8752,5847 8752,5822 8747,5797 8743,5772 8735,5742 8731,5717 8722,5696 8714,5671 8701,5646 8689,5625 8676,5604 8664,5583 8651,5562 8634,5545 8618,5528 8605,5508 8584,5491 8567,5474 8546,5457 8525,5445 8500,5432 8479,5420 8458,5407 8437,5399 8412,5386 8387,5378 8362,5373 8341,5369 8312,5361 8286,5357 8261,5357 8236,5357 8207,5357 8182,5357 8156,5361 8131,5369 8106,5373 8077,5378 8056,5386 8031,5399 8006,5407 7985,5420 7964,5432 7947,5445 7922,5457 7905,5474 7888,5491 7871,5508 7851,5528 7834,5545 7817,5562 7804,5583 7792,5604 7779,5625 7767,5646 7758,5671 7750,5696 7742,5717 7733,5742 7729,5772 7721,5797 7721,5822 7721,5847 7721,5876 7721,5897 7721,5918 7721,5939 7725,5960 7725,5981 7729,6002 7737,6019 7746,6044 7750,6061 7758,6078 7767,6094 7775,6115 7788,6132 7796,6149 7804,6170 7821,6187 7830,6199 7842,6216 7855,6228 7871,6245 7884,6258 7901,6270 7918,6283 7934,6300 7947,6308 7964,6321 7985,6329 8001,6337 8018,6346 8039,6358 8060,6367 8077,6375 8077,6342 8077,6316 8077,6283 8077,6258 8077,6233 8077,6208 8077,6178 8077,6161 8060,6149 8039,6136 8022,6119 8006,6111 7989,6094 7976,6073 7964,6057 7955,6044 7943,6023 7934,6002 7926,5981 7918,5960 7909,5939 7909,5918 7909,5893 7909,5876 7909,5855 7909,5839 7909,5822 7913,5805 7918,5772 7930,5746 7943,5717 7959,5688 7976,5663 8001,5642 8022,5621 8052,5604 8077,5583 8106,5575 8131,5562 8161,5558 8182,5549 8198,5549 8215,5549 8232,5549 8244,5549 8265,5549 8278,5549 8295,5558 8324,5562 8358,5575 8383,5583 8412,5604 8433,5621 8462,5642 8479,5663 8500,5688 8504,5700 8513,5717 8521,5730 8530,5746 8538,5772 8546,5805 8550,5822 8555,5839 8555,5855 8555,5876 8555,5889 8555,5906 8550,5922 8546,5939 8538,5969 8530,5998 8513,6027 8500,6057 8479,6078 8462,6103 8433,6119 8412,6140 8383,6157 8358,6174 8324,6182 8295,6191 8278,6195 8265,6195 8244,6195 8232,6199 8215,6195 8198,6195 8182,6195 8165,6191 8136,6182 8106,6174 8106,6191 8106,6216 8106,6245 8106,6270 8106,6300 8106,6329 8106,6354 8106,6384 8119,6384 8136,6384 8152,6388 8169,6392 8186,6392 8203,6396 8219,6396 "/>
    <polygon class="fil13" points="8064,6149 8127,6178 8123,6187 8123,6208 8123,6224 8123,6241 8123,6262 8123,6283 8123,6300 8123,6321 8123,6333 8123,6350 8123,6375 8123,6384 8110,6379 8089,6375 8068,6367 8064,6367 "/>
    <polygon class="fil13" points="7272,3751 7272,4078 7205,4082 7197,3760 7201,3756 7213,3751 7230,3747 7243,3747 7247,3747 7255,3747 7264,3747 "/>
    <polygon class="fil14" points="6664,5734 6689,5734 6715,5730 6736,5725 6765,5725 6786,5717 6811,5709 6832,5700 6857,5696 6878,5684 6899,5671 6920,5658 6941,5646 6962,5629 6983,5617 7000,5600 7021,5583 7037,5566 7050,5545 7067,5528 7079,5508 7092,5482 7104,5461 7117,5445 7130,5424 7134,5394 7142,5373 7151,5348 7159,5327 7159,5302 7163,5277 7167,5252 7167,5227 7167,5202 7163,5176 7159,5151 7159,5122 7151,5097 7142,5076 7134,5051 7130,5030 7117,5005 7104,4984 7092,4963 7079,4946 7067,4925 7050,4904 7037,4887 7021,4870 7000,4854 6983,4837 6962,4820 6941,4808 6920,4795 6899,4782 6878,4770 6857,4761 6832,4749 6811,4740 6786,4736 6765,4732 6736,4728 6715,4724 6689,4724 6664,4724 6648,4724 6631,4724 6614,4724 6601,4724 6568,4728 6543,4736 6513,4740 6484,4749 6459,4761 6434,4774 6409,4787 6379,4803 6358,4824 6337,4841 6312,4858 6295,4879 6279,4900 6258,4925 6270,4933 6287,4946 6308,4958 6329,4975 6350,4992 6371,5005 6388,5021 6409,5034 6417,5017 6430,5005 6442,4992 6455,4984 6467,4971 6484,4958 6501,4950 6518,4946 6530,4933 6551,4925 6568,4921 6585,4917 6601,4917 6618,4912 6639,4912 6660,4912 6689,4912 6719,4917 6748,4925 6782,4933 6807,4946 6832,4963 6857,4979 6882,5000 6899,5021 6916,5046 6933,5072 6949,5101 6958,5126 6966,5160 6970,5172 6970,5189 6970,5210 6974,5227 6970,5256 6966,5285 6958,5315 6949,5348 6933,5373 6916,5399 6899,5424 6882,5449 6857,5466 6832,5482 6807,5499 6782,5516 6748,5524 6719,5533 6689,5537 6660,5541 6643,5537 6622,5537 6606,5537 6593,5533 6560,5524 6534,5516 6505,5499 6480,5482 6455,5466 6438,5449 6413,5424 6396,5399 6379,5373 6367,5348 6354,5315 6350,5285 6342,5256 6342,5227 6342,5206 6342,5189 6346,5168 6350,5151 6354,5134 6363,5114 6371,5101 6379,5084 6363,5067 6342,5055 6325,5038 6304,5021 6287,5000 6266,4984 6249,4967 6241,4954 6228,4967 6220,4984 6212,4996 6203,5013 6195,5030 6187,5046 6182,5067 6178,5084 6170,5101 6166,5118 6161,5134 6161,5151 6157,5172 6157,5189 6157,5210 6157,5227 6157,5252 6157,5277 6161,5302 6166,5327 6170,5348 6174,5373 6182,5394 6195,5424 6203,5445 6216,5461 6228,5482 6241,5508 6254,5528 6270,5545 6287,5566 6304,5583 6325,5600 6342,5617 6358,5629 6379,5646 6400,5658 6421,5671 6442,5684 6467,5696 6488,5700 6513,5709 6534,5717 6560,5725 6589,5725 6614,5730 6639,5734 "/>
    <polygon class="fil14" points="6421,5009 6371,5101 6233,4967 6266,4925 "/>
    <polygon class="fil15" points="3206,6006 3211,6006 3232,6006 3240,6010 3257,6019 3273,6019 3299,6027 3320,6036 3349,6044 3362,6044 3374,6052 3391,6057 3408,6065 3424,6065 3437,6073 3454,6078 3475,6086 3491,6094 3512,6099 3529,6107 3554,6115 3571,6119 3592,6132 3613,6140 3634,6149 3655,6157 3680,6166 3697,6174 3726,6187 3747,6195 3772,6203 3793,6216 3823,6224 3848,6233 3873,6245 3898,6258 3923,6270 3948,6283 3973,6296 3999,6308 4028,6321 4053,6337 4082,6350 4108,6367 4137,6384 4162,6396 4191,6413 4221,6430 4250,6446 4279,6463 4309,6480 4338,6497 4367,6518 4393,6534 4422,6551 4447,6568 4472,6585 4497,6601 4523,6618 4543,6635 4573,6652 4590,6669 4611,6681 4632,6694 4652,6715 4669,6727 4690,6744 4711,6757 4728,6773 4745,6786 4761,6798 4778,6815 4795,6828 4812,6840 4828,6857 4841,6870 4862,6882 4875,6895 4891,6912 4904,6920 4921,6937 4937,6949 4950,6962 4967,6975 4984,6987 4992,6995 5009,7008 5021,7021 5038,7033 5055,7042 5067,7054 5088,7067 5105,7079 5118,7092 5134,7100 5151,7113 5172,7125 5189,7134 5206,7146 5227,7155 5248,7172 5264,7180 5285,7192 5306,7205 5331,7213 5348,7222 5373,7234 5399,7247 5424,7260 5449,7268 5474,7280 5503,7289 5533,7301 5558,7310 5591,7322 5621,7335 5658,7343 5688,7356 5721,7364 5751,7373 5784,7381 5818,7389 5847,7402 5881,7410 5914,7419 5943,7423 5977,7431 6006,7440 6044,7448 6073,7452 6107,7457 6136,7465 6170,7473 6199,7477 6228,7482 6258,7486 6287,7490 6316,7494 6346,7498 6375,7503 6409,7507 6434,7511 6463,7515 6492,7515 6522,7524 6547,7524 6572,7528 6597,7528 6622,7532 6648,7532 6673,7536 6694,7536 6719,7540 6736,7540 6761,7540 6782,7540 6803,7545 6819,7545 6840,7545 6857,7545 6878,7549 6895,7549 6912,7549 6928,7549 6945,7553 6970,7553 6995,7553 7016,7553 7037,7553 7050,7553 7063,7553 7067,7553 7071,7553 7067,7549 7054,7549 7037,7545 7021,7545 7008,7540 6991,7540 6974,7536 6962,7532 6941,7532 6924,7528 6903,7524 6886,7524 6857,7515 6836,7507 6811,7503 6786,7494 6757,7486 6731,7482 6702,7473 6673,7465 6643,7457 6610,7444 6576,7431 6543,7419 6509,7406 6476,7394 6438,7381 6404,7369 6363,7348 6325,7331 6287,7314 6249,7297 6203,7272 6166,7251 6124,7230 6082,7209 6040,7184 5998,7155 5952,7130 5910,7104 5864,7071 5818,7042 5776,7012 5734,6983 5684,6945 5642,6912 5591,6874 5545,6836 5499,6794 5453,6752 5407,6710 5357,6669 5311,6622 5264,6572 5218,6526 5172,6476 5122,6421 5076,6371 5030,6316 4984,6262 4937,6199 4891,6149 4841,6094 4795,6052 4749,6006 4703,5964 4661,5927 4619,5893 4573,5855 4531,5826 4489,5797 4443,5772 4401,5746 4359,5730 4317,5709 4279,5696 4238,5679 4200,5667 4158,5654 4124,5650 4082,5642 4045,5633 4011,5629 3978,5629 3940,5629 3906,5629 3869,5629 3839,5637 3802,5642 3772,5650 3743,5658 3718,5667 3684,5675 3655,5684 3626,5692 3600,5705 3575,5717 3550,5730 3521,5742 3504,5755 3475,5767 3454,5780 3429,5797 3412,5809 3391,5822 3370,5839 3353,5851 3341,5868 3324,5881 3307,5893 3290,5906 3278,5918 3257,5943 3240,5960 3219,5977 3211,5990 3206,5998 "/>
    <polygon class="fil16" points="5772,1304 5772,1299 5780,1295 5793,1287 5813,1283 5834,1270 5864,1257 5881,1253 5897,1245 5914,1241 5939,1236 5956,1228 5977,1228 6002,1216 6027,1216 6052,1207 6082,1207 6094,1203 6107,1199 6128,1199 6145,1199 6174,1199 6203,1195 6220,1195 6241,1195 6258,1195 6275,1195 6291,1195 6308,1195 6325,1195 6346,1195 6363,1195 6384,1199 6404,1199 6425,1203 6446,1203 6463,1203 6484,1207 6501,1207 6522,1207 6539,1211 6560,1216 6576,1220 6597,1220 6614,1228 6631,1228 6648,1236 6664,1236 6681,1245 6698,1245 6719,1253 6744,1266 6778,1274 6807,1283 6840,1291 6866,1299 6895,1316 6920,1324 6945,1337 6966,1350 6991,1358 7008,1366 7029,1379 7046,1387 7063,1396 7075,1404 7092,1413 7113,1425 7134,1438 7142,1442 7151,1450 7142,1442 7134,1429 7125,1417 7117,1404 7104,1392 7096,1379 7079,1362 7067,1345 7046,1329 7033,1312 7012,1291 6991,1274 6970,1253 6949,1236 6933,1224 6920,1211 6903,1199 6895,1190 6878,1178 6866,1169 6849,1161 6836,1153 6819,1144 6803,1136 6786,1128 6773,1119 6757,1111 6736,1102 6719,1094 6706,1086 6685,1077 6664,1069 6643,1065 6627,1056 6606,1052 6589,1048 6568,1044 6551,1039 6526,1035 6505,1031 6484,1027 6463,1027 6438,1023 6417,1023 6396,1023 6375,1023 6350,1023 6325,1023 6304,1023 6283,1023 6258,1023 6241,1027 6220,1027 6203,1035 6182,1035 6166,1039 6145,1039 6128,1048 6111,1048 6094,1056 6082,1056 6069,1065 6036,1077 6010,1086 5985,1094 5960,1111 5939,1123 5918,1136 5902,1148 5885,1161 5868,1174 5851,1186 5834,1199 5826,1211 5809,1236 5793,1257 5780,1274 5776,1291 5772,1299 "/>
    <polygon class="fil17" points="2435,6425 2435,6434 2452,6451 2460,6463 2473,6484 2490,6501 2506,6526 2519,6534 2527,6551 2536,6564 2548,6576 2557,6593 2574,6606 2582,6622 2599,6639 2611,6652 2624,6669 2641,6685 2657,6706 2670,6723 2687,6740 2703,6761 2724,6782 2737,6798 2754,6815 2771,6836 2791,6857 2808,6874 2825,6895 2846,6912 2867,6937 2884,6954 2909,6979 2930,6995 2951,7016 2972,7037 2997,7058 3014,7079 3043,7100 3060,7117 3085,7138 3110,7159 3135,7180 3156,7197 3181,7218 3211,7239 3236,7260 3261,7276 3286,7297 3315,7314 3341,7335 3366,7352 3391,7369 3420,7385 3450,7406 3475,7419 3504,7436 3529,7448 3554,7465 3575,7482 3605,7494 3630,7511 3655,7528 3680,7540 3701,7553 3726,7570 3751,7582 3772,7595 3797,7607 3823,7620 3848,7637 3869,7645 3890,7654 3911,7666 3936,7679 3952,7691 3973,7704 3990,7712 4015,7725 4032,7733 4053,7742 4070,7750 4091,7758 4108,7767 4124,7779 4141,7788 4162,7796 4179,7804 4191,7813 4204,7817 4225,7825 4250,7838 4279,7855 4300,7863 4326,7871 4346,7880 4363,7892 4380,7901 4397,7905 4409,7909 4422,7918 4434,7922 4439,7926 4430,7922 4409,7922 4388,7918 4372,7918 4346,7918 4321,7918 4305,7913 4288,7909 4271,7909 4258,7909 4238,7905 4221,7901 4204,7901 4187,7901 4166,7892 4145,7892 4124,7884 4103,7880 4082,7876 4057,7871 4036,7867 4015,7863 3990,7855 3961,7851 3936,7842 3911,7834 3885,7825 3860,7817 3831,7809 3806,7804 3776,7792 3747,7783 3718,7771 3688,7763 3659,7750 3634,7742 3605,7729 3575,7716 3542,7700 3512,7683 3479,7670 3450,7654 3420,7637 3391,7620 3357,7603 3328,7591 3294,7570 3265,7549 3232,7528 3202,7507 3169,7486 3135,7465 3106,7440 3076,7419 3043,7394 3014,7369 2980,7343 2955,7322 2926,7297 2900,7272 2875,7251 2850,7226 2825,7201 2800,7180 2779,7155 2762,7134 2737,7109 2720,7092 2703,7067 2687,7046 2666,7021 2649,7000 2632,6979 2620,6958 2603,6933 2594,6916 2578,6895 2569,6874 2557,6857 2544,6836 2536,6815 2527,6798 2519,6782 2506,6761 2502,6744 2498,6727 2490,6710 2481,6694 2473,6677 2473,6660 2460,6627 2452,6601 2444,6572 2444,6547 2435,6526 2435,6509 2435,6488 2431,6472 2431,6455 2431,6446 2431,6430 "/>
    <polygon class="fil17" points="1413,5730 1408,5730 1400,5734 1383,5738 1366,5751 1354,5755 1341,5759 1329,5767 1312,5776 1295,5784 1278,5793 1262,5801 1241,5814 1220,5822 1195,5830 1174,5843 1153,5855 1127,5868 1102,5881 1073,5893 1048,5910 1018,5922 989,5935 972,5943 956,5948 943,5956 926,5964 910,5969 897,5981 876,5985 863,5994 847,6002 830,6010 813,6019 796,6027 775,6036 759,6044 742,6048 725,6057 708,6065 692,6073 675,6082 662,6094 641,6103 625,6111 612,6119 595,6128 583,6136 566,6145 553,6153 541,6161 524,6170 511,6178 499,6187 486,6195 461,6216 436,6233 411,6249 390,6266 369,6283 352,6300 331,6316 314,6329 298,6346 281,6358 264,6371 251,6384 239,6396 231,6409 210,6425 197,6442 189,6451 189,6455 189,6446 197,6425 201,6409 210,6396 218,6375 231,6358 239,6329 247,6304 256,6291 260,6275 268,6262 277,6249 285,6233 298,6216 306,6203 314,6187 323,6170 335,6157 344,6140 356,6128 365,6111 377,6094 390,6073 398,6061 411,6044 428,6027 436,6006 457,5994 465,5977 482,5960 495,5943 511,5922 528,5906 545,5893 562,5876 578,5864 595,5847 612,5830 633,5818 650,5801 666,5784 687,5772 708,5759 729,5751 746,5734 771,5725 792,5709 817,5700 838,5688 859,5679 889,5671 914,5667 935,5658 956,5650 977,5642 998,5633 1018,5625 1039,5621 1056,5617 1077,5612 1094,5608 1111,5604 1127,5600 1144,5600 1174,5596 1203,5596 1228,5591 1253,5591 1270,5596 1291,5604 1308,5604 1324,5612 1337,5621 1354,5629 1371,5642 1387,5658 1396,5675 1404,5692 1413,5717 "/>
    <polygon class="fil18" points="7524,7947 7519,7947 7511,7955 7498,7968 7473,7985 7457,7993 7440,8006 7423,8014 7402,8027 7373,8039 7348,8052 7318,8064 7289,8081 7272,8081 7251,8089 7234,8094 7213,8102 7192,8106 7172,8110 7151,8119 7130,8127 7104,8127 7083,8136 7054,8140 7033,8144 7004,8148 6979,8152 6949,8161 6920,8165 6886,8169 6857,8173 6819,8173 6790,8182 6757,8182 6719,8186 6681,8190 6648,8194 6606,8194 6568,8198 6526,8203 6488,8203 6442,8203 6400,8207 6354,8207 6312,8211 6262,8207 6216,8207 6170,8203 6128,8203 6082,8198 6036,8194 5998,8190 5956,8190 5910,8182 5872,8177 5830,8173 5793,8169 5751,8161 5713,8152 5679,8148 5646,8144 5608,8136 5575,8127 5537,8119 5508,8106 5470,8098 5440,8089 5407,8081 5378,8077 5348,8064 5319,8056 5290,8048 5264,8039 5235,8027 5210,8018 5185,8010 5160,8001 5134,7989 5109,7980 5088,7968 5067,7959 5042,7947 5021,7939 5005,7930 4988,7922 4967,7913 4950,7905 4933,7897 4917,7888 4900,7880 4887,7871 4870,7863 4862,7859 4837,7842 4816,7830 4799,7817 4787,7809 4766,7796 4770,7796 4791,7804 4803,7813 4824,7821 4845,7830 4875,7842 4900,7851 4933,7863 4950,7867 4967,7871 4988,7880 5009,7888 5025,7892 5046,7901 5067,7905 5093,7913 5114,7918 5139,7930 5164,7934 5189,7943 5214,7947 5239,7951 5264,7955 5294,7964 5319,7968 5352,7976 5382,7976 5415,7985 5445,7989 5478,7993 5512,7993 5545,8001 5579,8006 5612,8010 5650,8014 5688,8018 5721,8018 5755,8022 5793,8022 5834,8022 5872,8022 5910,8022 5948,8022 5994,8022 6036,8022 6073,8018 6119,8014 6161,8014 6203,8010 6245,8006 6291,8006 6337,8001 6379,7993 6421,7985 6463,7980 6505,7976 6543,7968 6581,7968 6618,7959 6656,7955 6689,7947 6723,7947 6757,7939 6790,7939 6819,7930 6849,7930 6878,7926 6907,7926 6933,7918 6958,7918 6979,7913 7008,7909 7029,7909 7050,7905 7075,7901 7096,7901 7113,7901 7134,7897 7151,7892 7172,7892 7188,7892 7205,7892 7218,7892 7234,7892 7260,7884 7285,7880 7306,7880 7327,7880 7339,7876 7356,7876 7368,7876 7385,7876 7398,7876 7410,7876 7415,7876 7419,7876 "/>
   </g>
  </g>
 </g>
</svg>
