<?xml version="1.0" encoding="UTF-8"?>
<!DOCTYPE svg PUBLIC "-//W3C//DTD SVG 1.1//EN" "http://www.w3.org/Graphics/SVG/1.1/DTD/svg11.dtd">
<!-- Creator: CorelDRAW -->
<svg xmlns="http://www.w3.org/2000/svg" xml:space="preserve" width="95.9054mm" height="144.153mm" version="1.1" style="shape-rendering:geometricPrecision; text-rendering:geometricPrecision; image-rendering:optimizeQuality; fill-rule:evenodd; clip-rule:evenodd"
viewBox="0 0 9591 14415"
 xmlns:xlink="http://www.w3.org/1999/xlink">
 <defs>
  <style type="text/css">
   <![CDATA[
    .fil7 {fill:#FFFF80;fill-rule:nonzero}
    .fil26 {fill:yellow;fill-rule:nonzero}
    .fil2 {fill:#FFE9E9;fill-rule:nonzero}
    .fil3 {fill:#FAC7C7;fill-rule:nonzero}
    .fil25 {fill:#FFCC00;fill-rule:nonzero}
    .fil4 {fill:#FAAEAE;fill-rule:nonzero}
    .fil5 {fill:#F89292;fill-rule:nonzero}
    .fil9 {fill:#B34D1A;fill-rule:nonzero}
    .fil10 {fill:#8F2900;fill-rule:nonzero}
    .fil8 {fill:#E68034;fill-rule:nonzero}
    .fil18 {fill:#FF9900;fill-rule:nonzero}
    .fil6 {fill:#F57676;fill-rule:nonzero}
    .fil11 {fill:#800101;fill-rule:nonzero}
    .fil19 {fill:#FF6600;fill-rule:nonzero}
    .fil1 {fill:red;fill-rule:nonzero}
    .fil24 {fill:#BECAD4;fill-rule:nonzero}
    .fil17 {fill:#97DE0B;fill-rule:nonzero}
    .fil20 {fill:#378837;fill-rule:nonzero}
    .fil16 {fill:#7EB81A;fill-rule:nonzero}
    .fil12 {fill:#2F501D;fill-rule:nonzero}
    .fil13 {fill:#2C6C17;fill-rule:nonzero}
    .fil15 {fill:#5BA02A;fill-rule:nonzero}
    .fil14 {fill:#2A8622;fill-rule:nonzero}
    .fil23 {fill:navy;fill-rule:nonzero}
    .fil22 {fill:#00009F;fill-rule:nonzero}
    .fil21 {fill:#0018EB;fill-rule:nonzero}
    .fil27 {fill:black;fill-rule:nonzero}
    .fil0 {fill:white;fill-rule:nonzero}
   ]]>
  </style>
 </defs>
 <g id="Layer_x0020_1">
  <metadata id="CorelCorpID_0Corel-Layer"/>
  <g id="anim1695.ai">
   <polygon class="fil0" points="6151,3122 6060,2323 6585,863 7338,1114 7999,3031 7840,4788 6265,6750 4851,4833 5741,3350 "/>
   <g>
    <g>
     <polygon class="fil1" points="6956,1739 7011,1601 6919,1491 6818,1519 6818,1711 "/>
     <polygon class="fil2" points="2887,9334 2593,9353 2308,9766 2428,10042 2676,9950 "/>
     <polygon class="fil3" points="2327,9978 1767,10364 1482,10850 1418,11594 2134,11411 2593,10069 "/>
     <polygon class="fil4" points="2272,9757 1261,9629 159,10069 1041,10382 2373,10033 "/>
     <polygon class="fil5" points="2437,9390 2199,8747 784,8435 1482,9436 2263,9812 "/>
     <polygon class="fil6" points="3126,8674 2648,7801 2263,8729 2428,9409 2842,9334 "/>
     <polygon class="fil7" points="6627,8899 6426,8498 6541,8126 7199,7353 7438,8031 8478,7754 8039,8632 9165,9004 8392,9548 7647,9595 8020,9996 8154,10826 7114,10511 6847,9872 6455,10273 5721,10569 6045,9605 5577,9548 4948,9166 5520,8870 6293,8785 "/>
     <polygon class="fil8" points="9262,7792 9215,8086 9326,8416 9528,8444 9556,8159 9436,7783 "/>
     <polygon class="fil9" points="7847,7819 8086,7415 8279,7250 8288,7020 8784,6340 8389,6332 8122,6919 7498,7957 "/>
     <polygon class="fil9" points="8398,7975 9188,7810 9308,8380 8013,8545 "/>
     <polygon class="fil10" points="6249,8315 6497,8251 6469,8554 6534,8793 6019,8738 "/>
     <polygon class="fil10" points="4798,8517 4173,8683 3981,9206 4899,8866 "/>
     <polygon class="fil11" points="4054,8940 4844,8665 4899,8866 3944,9197 "/>
     <polygon class="fil11" points="8224,8260 9215,8223 9326,8407 8885,8407 8040,8554 "/>
     <polygon class="fil11" points="6185,8554 6442,8499 6534,8793 6074,8738 "/>
     <polygon class="fil12" points="3253,7406 3361,7042 3698,6758 3604,7082 "/>
     <polygon class="fil13" points="2929,6853 3050,6529 3334,6272 3631,6137 3577,6340 3334,6596 "/>
     <polygon class="fil14" points="2592,6218 2780,5854 3253,5489 3618,5394 3428,5759 3010,6097 "/>
     <polygon class="fil15" points="2227,5502 2645,4989 2970,4787 3455,4652 2862,5273 2240,5624 "/>
     <polygon class="fil16" points="1917,4881 2335,4341 2956,3869 3428,3720 3226,4031 2848,4409 1984,4976 "/>
     <polygon class="fil17" points="1768,4396 2335,3599 2848,3126 3145,3032 3010,3356 2659,3788 1822,4504 "/>
     <polygon class="fil15" points="4185,8729 2983,7123 1889,4760 1984,5421 2322,6394 3402,8095 4090,8945 "/>
     <path class="fil18" d="M5008 9134c0,0 -135,-701 -351,-648l108 -189 297 -162 81 270 351 -216 189 135 351 -215 135 269 -54 405 -1107 351z"/>
     <polygon class="fil19" points="4954,9107 4765,8405 5116,8702 5116,9027 "/>
     <polygon class="fil19" points="5737,8297 6034,8729 5656,8864 "/>
     <polygon class="fil19" points="5305,8378 5548,8810 5278,8999 "/>
     <polygon class="fil20" points="1905,12770 1482,14286 1794,14230 2327,13780 3493,9675 3108,9895 2520,12173 "/>
     <polygon class="fil21" points="3448,8389 3815,8719 3080,9968 2713,11567 2327,12448 1721,13000 1721,12338 "/>
     <polygon class="fil22" points="4146,6809 3741,7617 3925,8168 4403,8095 "/>
     <polygon class="fil23" points="5509,2989 5927,3181 5445,3792 5060,4772 4754,6651 4626,6507 4593,5286 "/>
     <path class="fil21" d="M5468 3061l-845 1838 -439 -240c0,0 111,-744 228,-1065 117,-321 239,-422 239,-422l395 -285 422 174z"/>
     <path class="fil24" d="M7099 1804c0,0 666,1118 605,1648 -61,528 -621,3477 -1981,1587 0,0 -468,-878 333,-1603l-438 137 -514 982 -257 967 -91 1407 75 1254 333 197 378 -212 136 166 378 -272 1648 -2902 287 -1512 -76 -1572 -468 -998 -544 45 196 91 106 182 -106 408z"/>
     <path class="fil25" d="M6177 2847l-2086 -605 166 -408 1497 151 -1497 -499 726 -1345 1390 302 1180 786 136 318c0,0 -439,-605 -832,-393l-287 257 -227 665 -166 771z"/>
     <polygon class="fil18" points="4256,1812 6387,2106 6203,2878 3999,2216 "/>
     <path class="fil19" d="M4844 306c0,0 404,367 624,698 220,331 -441,294 -551,661l-1028 -330 955 -1029z"/>
     <path class="fil26" d="M4883 468c0,0 1293,137 1870,705 0,0 254,-176 636,59l-147 -226 -1174 -607 -1067 -137 -118 206z"/>
     <path class="fil27" d="M7140 1840c0,0 244,-512 -92,-691 -335,-179 -615,367 -638,439 -23,71 -124,571 -152,732 -27,161 -73,404 -105,445 0,0 -625,-207 -745,-257 -119,-50 -657,-214 -767,-246 -133,-68 -206,-142 -247,-351 0,0 1111,142 1350,165 239,23 376,73 399,55 23,-18 115,-128 -69,-192 -183,-65 -1534,-473 -1534,-473 0,0 -1684,-455 -2011,-455 0,0 662,-702 1282,-721 620,-18 1924,28 2498,290 574,261 1052,523 1152,863 101,340 667,1488 391,2700 -276,1212 -1929,3968 -1929,3968l202 -19c0,0 1874,-2461 1910,-4132 37,-1673 -55,-2609 -698,-3032 -642,-422 -3215,-1928 -5033,129l2700 716c0,0 919,275 -36,92 -955,-183 -2131,-422 -2131,-422l551 330 55 258c0,0 184,165 845,348 661,184 1874,552 1874,552 0,0 184,-111 257,-772 73,-661 330,-1029 588,-946 257,83 101,459 101,459 0,0 0,-257 -248,-257 -248,0 -211,349 -119,386 91,37 128,-129 128,-129 0,0 -46,-128 64,-128 110,0 0,156 0,156l-138 147c0,0 120,100 276,46l69 -53z"/>
     <path class="fil27" d="M3443 1925c0,0 -184,-83 -312,-322l-294 -165c102,211 321,425 661,634l-55 -147z"/>
     <path class="fil27" d="M2662 1047c0,0 232,-237 458,-386 225,-148 665,-261 469,-344 249,-113 950,-143 1450,-24 0,0 28,432 -158,821 -77,158 -367,145 -431,349l-1788 -416z"/>
     <path class="fil27" d="M6860 1650c0,0 34,65 104,5l22 43 -178 156c0,0 -69,-26 -95,-82l147 -122z"/>
     <path class="fil27" d="M4927 8126c0,0 -588,-3214 1010,-4592 0,0 900,-459 1414,514 0,0 184,826 129,-312 -55,-1139 -1653,-918 -1929,-422 -276,495 -1139,2149 -698,4886l74 -74z"/>
     <path class="fil27" d="M5694 3167c0,0 -88,-185 -382,385 -294,570 -826,2204 -569,2976l18 92 128 1557 -146 353 -570 129c0,0 -330,-3178 -18,-4390 312,-1213 863,-1764 1561,-1268 0,0 -1304,-680 -1432,1617 0,0 120,-519 174,-652 55,-133 225,-368 129,-106 -97,262 -92,647 -92,647 0,0 -19,359 78,-114 96,-474 289,-809 225,-607 -64,203 -124,923 -60,551 65,-371 257,-1065 478,-1148 0,0 -226,92 -331,239 -105,147 -115,74 -82,-41 32,-115 142,-299 41,-188 -101,110 -138,285 -161,303 -23,18 -28,-198 152,-391 179,-192 661,-257 968,0l-109 56z"/>
     <path class="fil27" d="M4741 8420l132 132 -649 186c0,0 -53,238 -159,358 0,0 265,-14 450,-159 186,-146 451,-119 451,-119l-13 66 -994 358 212 -624 570 -198z"/>
     <path class="fil27" d="M4754 8499c0,0 239,-397 292,-132 53,265 -26,676 -26,676l318 -146c0,0 -1,-1405 -624,-557l40 159z"/>
     <path class="fil27" d="M5258 8433c0,0 451,-583 225,385l279 -67c0,0 133,-1101 -530,-451l26 133z"/>
     <path class="fil27" d="M5722 8367c0,0 451,-412 225,344l292 14c0,0 212,-1220 -530,-477l13 119z"/>
     <path class="fil27" d="M4197 8711c0,0 -1047,-1312 -1232,-1869 -186,-557 -451,-358 -995,-2214 0,0 -212,-955 -80,-1525 133,-570 -304,411 -145,1246 158,836 158,1472 1047,3010l1286 1657 40 -132c0,0 -835,-955 -1087,-1432 -252,-478 -663,-1154 -756,-1339 -93,-186 -636,-2068 -79,-491 556,1578 1949,3182 1949,3182l52 -93z"/>
     <path class="fil27" d="M2978 7558c0,0 -505,345 -1075,437 -569,93 -675,133 -331,-132 345,-265 783,-491 889,-491 106,0 411,-26 411,-26l106 212z"/>
     <path class="fil27" d="M2646 7041c0,0 -742,185 -1564,-27 -822,-212 875,-371 968,-358 92,14 530,186 530,186l66 199z"/>
     <path class="fil27" d="M2301 6365c0,0 -490,158 -1418,-146 -928,-305 1139,-279 1339,-13l79 159z"/>
     <path class="fil27" d="M2010 5569c0,0 -318,53 -597,40 -279,-13 -1219,-278 -676,-345 543,-66 1074,66 1246,186l27 119z"/>
     <path class="fil27" d="M1864 4773c0,0 -518,173 -1114,67 -596,-106 -756,-305 -451,-292 306,14 530,-159 929,-26 397,132 662,185 662,185l-26 66z"/>
     <path class="fil27" d="M1771 4257c0,0 -769,-306 -941,-664 -172,-357 13,-317 610,146l331 438 0 80z"/>
     <path class="fil27" d="M6466 8718c0,0 -830,-124 -1498,343 0,0 -257,58 -67,201 191,143 229,66 344,172 114,104 201,209 687,305 0,0 -143,458 -181,591 -38,134 -191,392 67,315 257,-76 687,-123 992,-563 0,0 38,392 191,487 308,130 637,275 1230,410 0,0 353,29 134,-191 -219,-219 -143,-515 -181,-696 -38,-181 -124,-372 -277,-430 0,0 295,105 820,-238 525,-344 716,-390 411,-534 -305,-144 -859,-363 -983,-344 -124,19 -877,485 -877,485l45 120c0,0 346,-357 698,-376 353,-19 783,105 936,229 0,0 -354,611 -1423,506 0,0 -333,-38 -152,66 181,106 411,106 468,297 57,190 171,915 0,715 -309,-159 -401,-95 -544,-229 -143,-133 -267,-258 -372,-592 0,0 -38,-124 -134,0 -95,125 -267,497 -963,688 0,0 95,-611 390,-831 296,-219 258,-305 106,-228 -153,76 -678,200 -1136,-134 0,0 -306,-86 229,-229 534,-143 687,-248 1078,-133 392,114 -67,-96 10,-421 76,-324 267,-600 401,-715 133,-114 286,-306 286,-306 0,0 372,677 -38,1069 -410,392 38,200 85,162 48,-38 334,-247 182,-887 -153,-639 -191,-563 -315,-382 -124,181 -487,525 -592,668 -105,143 -143,353 -114,449 28,95 57,181 57,181z"/>
     <path class="fil27" d="M3264 7874c0,0 -184,662 -717,956 -532,293 -735,551 -146,-331 293,-404 771,-716 771,-716l92 91z"/>
     <path class="fil27" d="M7186 9068c0,0 193,459 -321,506 -763,-258 110,-845 321,-506z"/>
     <path class="fil27" d="M7654 8811c0,0 542,-505 652,-937 -147,0 -726,102 -863,395l-18 -193c0,0 303,-403 1203,-486 0,0 110,-28 -19,165 -128,193 -284,597 -449,818l-506 238z"/>
     <path class="fil27" d="M8288 8600c0,0 524,-220 1056,-156l-119 -120c0,0 -541,28 -606,28 -65,0 -423,101 -423,101l-101 147 193 0z"/>
     <path class="fil27" d="M8398 8104c0,0 625,-174 707,-174 0,0 64,605 423,578 0,0 147,-28 -9,-533 0,0 73,-284 -120,-247 -192,36 101,330 101,504 0,175 -109,303 -174,0 -65,-302 54,-551 -65,-560 -119,-9 -247,74 -330,74 -83,0 -395,0 -395,0l-138 358z"/>
     <path class="fil27" d="M8031 7764c0,0 110,-339 257,-477 147,-138 -37,-129 110,-340 147,-211 698,-652 414,-652 -285,0 -441,-56 -524,82 -83,138 -37,285 -138,404 -101,120 -128,349 -358,524 -230,175 55,193 -386,478l-9 312 202 -147c0,0 230,-514 322,-597 92,-83 348,-533 376,-634 28,-101 137,-358 220,-358 83,0 -211,551 -256,643 -46,92 9,202 -74,294 -83,92 -184,45 -422,560l266 -92z"/>
     <path class="fil27" d="M4641 8958c0,0 -1212,1764 -1689,3307 -478,1543 -625,1653 -625,1653 0,0 -257,102 -303,156 -46,55 -432,551 -615,239l348 -1240 258 -266c0,0 -275,900 -312,1084 -37,183 -120,413 128,229 248,-184 588,-532 1129,-2801 0,0 138,-1111 331,-1341 194,-230 -27,-92 -101,65 -73,155 -138,339 -230,817 -91,477 -532,2360 -872,2746 0,0 -275,468 -137,-18 137,-487 229,-754 248,-1011l55 -321c0,0 385,-496 606,-1755 220,-1258 817,-2039 817,-2039l423 487 -74 202 303 -83 312 -110z"/>
     <path class="fil27" d="M3613 8637l-120 -138c0,0 -780,1488 -1065,2452 -285,965 -368,735 -515,1351 -146,615 -155,606 65,339 221,-266 312,-404 312,-404l-64 368 -469 514 -183 762 -340 -441c0,0 625,-1864 928,-2598 303,-735 992,-2398 1203,-2765l404 422 -156 138z"/>
     <path class="fil27" d="M4146 7930l-138 147c0,0 -110,-689 64,-891l-18 -505c0,0 -459,992 -533,1157l652 927 74 -100 -101 -735z"/>
     <path class="fil27" d="M3135 8642c0,0 -9,-283 -75,-443 -67,-160 -321,-339 -340,-528 -19,-188 -198,216 -282,358 -85,142 -547,433 -66,1394l75 -56c0,0 -150,-575 -19,-848 132,-273 273,-471 273,-471 0,0 339,424 377,726l57 -132z"/>
     <path class="fil27" d="M2174 8660c0,0 -274,-207 -923,-245 0,0 -509,-56 -574,-103 -66,-47 -122,-67 -28,113 93,179 357,631 433,847 75,217 301,321 301,321 0,0 -593,-85 -1271,433 0,0 -311,113 103,150 415,38 726,340 829,340 103,0 320,37 593,-85 0,0 -244,424 -254,716 -9,291 -236,648 -160,677 75,29 329,-282 706,-254l75 -188c0,0 -188,0 -498,132 0,0 37,-378 27,-481 -9,-103 75,-564 424,-724 349,-161 405,-311 405,-311l-122 -57c0,0 -640,433 -1234,263 -593,-169 -725,-112 -461,-225 264,-113 509,-265 763,-292 254,-29 527,103 894,141l29 -151c0,0 -406,10 -669,-292 -264,-301 -424,-677 -509,-772 -85,-94 265,10 387,29 122,18 620,56 762,338l-28 -320z"/>
     <path class="fil27" d="M2475 10139c0,0 -339,-28 -291,-433 47,-405 649,-471 508,-302 -142,170 -509,556 -142,546l-75 189z"/>
     <path class="fil27" d="M1876 4220c0,0 444,-869 1024,-1160 0,0 474,-280 252,87 -223,368 -348,657 -860,996 -513,338 647,-464 782,-1034 0,0 -667,270 -1179,1372l-19 -261z"/>
     <path class="fil27" d="M1992 4723c0,0 564,-797 1179,-1001 0,0 509,-210 237,122 -272,331 -438,600 -993,862 -556,262 707,-366 922,-912 0,0 -699,172 -1363,1190l18 -261z"/>
     <path class="fil27" d="M2205 5409c0,0 474,-541 647,-629 174,-86 821,-318 696,-134 -126,183 -695,763 -1005,811 -310,48 183,-144 435,-357 251,-213 376,-387 376,-387 0,0 -473,-20 -1101,860l-48 -164z"/>
     <path class="fil27" d="M2514 6124c0,0 135,-512 1188,-812 0,0 -163,735 -1082,957l-48 -48c0,0 725,-184 1005,-783 0,0 -629,184 -870,686l-193 0z"/>
     <polygon class="fil27" points="2687,6211 2724,6083 2475,6124 2543,6250 "/>
     <path class="fil27" d="M2924 6745c0,0 46,-395 771,-689 0,0 -27,505 -734,836l-37 -64c0,0 579,-368 670,-598 0,0 -413,120 -569,487l-101 28z"/>
     <polygon class="fil27" points="3025,6716 3002,6788 2940,6848 2919,6745 "/>
     <path class="fil27" d="M3201 7348c0,0 19,-322 409,-597 0,0 294,-216 183,9 -110,225 -253,537 -510,684l-55 -41c0,0 271,-180 400,-519 0,0 -239,73 -271,363l-156 101z"/>
     <polygon class="fil27" points="3359,7233 3375,7306 3261,7421 3187,7334 "/>
     <path class="fil27" d="M5813 3089c0,0 -87,-92 -198,-143 -110,-50 -331,-64 -331,-64l-280 46c0,0 115,1 -73,120l854 78 28 -37z"/>
    </g>
   </g>
  </g>
 </g>
</svg>
